<svg width="39" height="39" viewBox="0 0 39 39" fill="none" xmlns="http://www.w3.org/2000/svg">
<path d="M19.84 0.765381C14.6799 0.765381 14.0323 0.787944 12.0056 0.880173C9.98289 0.972798 8.60221 1.29303 7.39412 1.76288C6.14446 2.24817 5.08441 2.89734 4.02831 3.95382C2.97142 5.0099 2.32225 6.06994 1.83537 7.31919C1.36432 8.52767 1.0437 9.90874 0.952654 11.9307C0.862007 13.9573 0.838257 14.6053 0.838257 19.7654C0.838257 24.9255 0.861216 25.5711 0.95305 27.5977C1.04607 29.6204 1.3663 31.0011 1.83577 32.2092C2.32146 33.4588 2.97063 34.5189 4.02712 35.575C5.08282 36.6318 6.14287 37.2826 7.39174 37.7679C8.60063 38.2377 9.98171 38.558 12.004 38.6506C14.0307 38.7428 14.6779 38.7654 19.8377 38.7654C24.9982 38.7654 25.6438 38.7428 27.6705 38.6506C29.6932 38.558 31.0755 38.2377 32.2844 37.7679C33.5336 37.2826 34.5921 36.6318 35.6478 35.575C36.7047 34.5189 37.3539 33.4588 37.8407 32.2096C38.3078 31.0011 38.6285 29.62 38.7235 27.5981C38.8145 25.5715 38.8383 24.9255 38.8383 19.7654C38.8383 14.6053 38.8145 13.9577 38.7235 11.931C38.6285 9.90834 38.3078 8.52767 37.8407 7.31959C37.3539 6.06994 36.7047 5.0099 35.6478 3.95382C34.5909 2.89694 33.534 2.24778 32.2832 1.76288C31.0719 1.29303 29.6905 0.972798 27.6677 0.880173C25.641 0.787944 24.9958 0.765381 19.8341 0.765381H19.84ZM18.1356 4.18934C18.6414 4.18855 19.2059 4.18934 19.84 4.18934C24.9131 4.18934 25.5144 4.20755 27.5177 4.29859C29.3702 4.3833 30.3756 4.69284 31.0454 4.9529C31.9321 5.29728 32.5642 5.70894 33.2288 6.37394C33.8939 7.03894 34.3055 7.67228 34.6507 8.55894C34.9108 9.2279 35.2207 10.2333 35.305 12.0858C35.3961 14.0887 35.4158 14.6904 35.4158 19.761C35.4158 24.8317 35.3961 25.4333 35.305 27.4362C35.2203 29.2887 34.9108 30.2942 34.6507 30.9631C34.3063 31.8498 33.8939 32.4811 33.2288 33.1457C32.5638 33.8107 31.9325 34.2224 31.0454 34.5668C30.3764 34.828 29.3702 35.1368 27.5177 35.2215C25.5148 35.3125 24.9131 35.3323 19.84 35.3323C14.7666 35.3323 14.1653 35.3125 12.1624 35.2215C10.3099 35.136 9.30443 34.8264 8.63428 34.5664C7.7476 34.222 7.11426 33.8103 6.44925 33.1453C5.78425 32.4803 5.37257 31.8486 5.0274 30.9615C4.76734 30.2926 4.4574 29.2872 4.37309 27.4347C4.28204 25.4317 4.26383 24.8301 4.26383 19.7563C4.26383 14.6825 4.28204 14.084 4.37309 12.0811C4.45779 10.2286 4.76734 9.22315 5.0274 8.5534C5.37178 7.66673 5.78425 7.0334 6.44925 6.3684C7.11426 5.7034 7.7476 5.29174 8.63428 4.94657C9.30403 4.68532 10.3099 4.37657 12.1624 4.29146C13.9151 4.2123 14.5944 4.18855 18.1356 4.18459V4.18934ZM29.9822 7.34413C28.7234 7.34413 27.7022 8.36419 27.7022 9.62334C27.7022 10.8821 28.7234 11.9033 29.9822 11.9033C31.2409 11.9033 32.2622 10.8821 32.2622 9.62334C32.2622 8.36459 31.2409 7.34334 29.9822 7.34334V7.34413ZM19.84 10.0081C14.4515 10.0081 10.0826 14.3769 10.0826 19.7654C10.0826 25.1539 14.4515 29.5207 19.84 29.5207C25.2286 29.5207 29.5958 25.1539 29.5958 19.7654C29.5958 14.3769 25.2286 10.0081 19.84 10.0081ZM19.84 13.432C23.3377 13.432 26.1734 16.2674 26.1734 19.7654C26.1734 23.263 23.3377 26.0987 19.84 26.0987C16.342 26.0987 13.5066 23.263 13.5066 19.7654C13.5066 16.2674 16.342 13.432 19.84 13.432Z" fill="white"/>
</svg>
