<svg width="54" height="54" viewBox="0 0 54 54" fill="none" xmlns="http://www.w3.org/2000/svg">
<path d="M27.3453 7.49268C22.1114 7.49268 21.4545 7.51556 19.3988 7.60912C17.3471 7.70307 15.9467 8.0279 14.7213 8.50449C13.4537 8.99675 12.3785 9.65524 11.3073 10.7269C10.2353 11.7981 9.57683 12.8734 9.08298 14.1406C8.60519 15.3664 8.27997 16.7673 8.18763 18.8182C8.09568 20.874 8.07159 21.5313 8.07159 26.7654C8.07159 31.9996 8.09488 32.6544 8.18803 34.7102C8.28238 36.7619 8.6072 38.1624 9.08338 39.3878C9.57603 40.6554 10.2345 41.7307 11.3061 42.8019C12.3769 43.874 13.4521 44.5341 14.7189 45.0263C15.9451 45.5029 17.3459 45.8277 19.3972 45.9217C21.4529 46.0152 22.1093 46.0381 27.3429 46.0381C32.5773 46.0381 33.2322 46.0152 35.2879 45.9217C37.3396 45.8277 38.7416 45.5029 39.9678 45.0263C41.2349 44.5341 42.3086 43.874 43.3794 42.8019C44.4514 41.7307 45.1098 40.6554 45.6037 39.3882C46.0775 38.1624 46.4027 36.7615 46.499 34.7106C46.5914 32.6548 46.6155 31.9996 46.6155 26.7654C46.6155 21.5313 46.5914 20.8744 46.499 18.8186C46.4027 16.7669 46.0775 15.3664 45.6037 14.141C45.1098 12.8734 44.4514 11.7981 43.3794 10.7269C42.3074 9.65483 41.2353 8.99635 39.9666 8.50449C38.738 8.0279 37.3367 7.70307 35.2851 7.60912C33.2294 7.51556 32.5749 7.49268 27.3393 7.49268H27.3453ZM25.6165 10.9658C26.1296 10.965 26.7021 10.9658 27.3453 10.9658C32.491 10.9658 33.1009 10.9843 35.1329 11.0766C37.0119 11.1625 38.0317 11.4765 38.7111 11.7403C39.6105 12.0896 40.2517 12.5072 40.9258 13.1817C41.6003 13.8563 42.0179 14.4987 42.368 15.3981C42.6318 16.0767 42.9461 17.0965 43.0317 18.9756C43.124 21.0073 43.1441 21.6176 43.1441 26.761C43.1441 31.9044 43.124 32.5147 43.0317 34.5464C42.9457 36.4255 42.6318 37.4453 42.368 38.1239C42.0187 39.0233 41.6003 39.6637 40.9258 40.3378C40.2513 41.0124 39.6109 41.4299 38.7111 41.7793C38.0326 42.0443 37.0119 42.3574 35.1329 42.4434C33.1013 42.5357 32.491 42.5558 27.3453 42.5558C22.1993 42.5558 21.5894 42.5357 19.5578 42.4434C17.6788 42.3566 16.6589 42.0427 15.9792 41.7789C15.0798 41.4295 14.4374 41.012 13.7629 40.3374C13.0884 39.6629 12.6708 39.0221 12.3207 38.1223C12.0569 37.4437 11.7425 36.4239 11.657 34.5448C11.5647 32.5131 11.5462 31.9028 11.5462 26.7562C11.5462 21.6095 11.5647 21.0025 11.657 18.9708C11.7429 17.0917 12.0569 16.0718 12.3207 15.3925C12.67 14.4931 13.0884 13.8507 13.7629 13.1761C14.4374 12.5016 15.0798 12.084 15.9792 11.7339C16.6585 11.4689 17.6788 11.1557 19.5578 11.0694C21.3356 10.9891 22.0246 10.965 25.6165 10.961V10.9658ZM37.6327 14.1659C36.3559 14.1659 35.32 15.2006 35.32 16.4778C35.32 17.7546 36.3559 18.7905 37.6327 18.7905C38.9094 18.7905 39.9453 17.7546 39.9453 16.4778C39.9453 15.201 38.9094 14.1651 37.6327 14.1651V14.1659ZM27.3453 16.8681C21.8797 16.8681 17.4483 21.2996 17.4483 26.7654C17.4483 32.2312 21.8797 36.6607 27.3453 36.6607C32.811 36.6607 37.2408 32.2312 37.2408 26.7654C37.2408 21.2996 32.811 16.8681 27.3453 16.8681ZM27.3453 20.3412C30.893 20.3412 33.7694 23.2172 33.7694 26.7654C33.7694 30.3132 30.893 33.1896 27.3453 33.1896C23.7973 33.1896 20.9213 30.3132 20.9213 26.7654C20.9213 23.2172 23.7973 20.3412 27.3453 20.3412Z" fill="white"/>
</svg>
