<svg width="215" height="34" viewBox="0 0 215 34" fill="none" xmlns="http://www.w3.org/2000/svg">
<path d="M100.002 0C95.3846 0 94.8052 0.0201878 92.9919 0.102709C91.182 0.185584 89.9467 0.472104 88.8658 0.8925C87.7477 1.32671 86.7992 1.90754 85.8543 2.85281C84.9086 3.79773 84.3278 4.74619 83.8922 5.86394C83.4707 6.94521 83.1838 8.1809 83.1024 9.98998C83.0213 11.8033 83 12.3831 83 17C83 21.6169 83.0205 22.1946 83.1027 24.0079C83.1859 25.8177 83.4725 27.053 83.8925 28.1339C84.3271 29.252 84.9079 30.2005 85.8532 31.1454C86.7978 32.091 87.7462 32.6733 88.8636 33.1075C89.9453 33.5279 91.181 33.8144 92.9904 33.8973C94.8038 33.9798 95.3829 34 99.9995 34C104.617 34 105.194 33.9798 107.008 33.8973C108.818 33.8144 110.054 33.5279 111.136 33.1075C112.254 32.6733 113.201 32.091 114.145 31.1454C115.091 30.2005 115.672 29.252 116.107 28.1343C116.525 27.053 116.812 25.8173 116.897 24.0083C116.979 22.1949 117 21.6169 117 17C117 12.3831 116.979 11.8037 116.897 9.99033C116.812 8.18054 116.525 6.94521 116.107 5.86429C115.672 4.74619 115.091 3.79773 114.145 2.85281C113.2 1.90719 112.254 1.32635 111.135 0.8925C110.051 0.472104 108.815 0.185584 107.005 0.102709C105.192 0.0201878 104.615 0 99.9963 0H100.002ZM98.4765 3.06354C98.9292 3.06283 99.4342 3.06354 100.002 3.06354C104.541 3.06354 105.079 3.07983 106.871 3.16129C108.529 3.23708 109.428 3.51404 110.027 3.74673C110.821 4.05485 111.386 4.42319 111.981 5.01819C112.576 5.61319 112.944 6.17985 113.253 6.97319C113.486 7.57173 113.763 8.47131 113.839 10.1288C113.92 11.9209 113.938 12.4592 113.938 16.9961C113.938 21.533 113.92 22.0713 113.839 23.8634C113.763 25.5209 113.486 26.4205 113.253 27.019C112.945 27.8124 112.576 28.3772 111.981 28.9719C111.386 29.5669 110.821 29.9352 110.027 30.2434C109.429 30.4771 108.529 30.7534 106.871 30.8291C105.079 30.9106 104.541 30.9283 100.002 30.9283C95.4622 30.9283 94.9242 30.9106 93.1321 30.8291C91.4746 30.7526 90.575 30.4757 89.9754 30.243C89.182 29.9349 88.6154 29.5665 88.0204 28.9715C87.4254 28.3765 87.057 27.8113 86.7482 27.0176C86.5155 26.4191 86.2382 25.5195 86.1627 23.862C86.0813 22.0699 86.065 21.5316 86.065 16.9919C86.065 12.4521 86.0813 11.9166 86.1627 10.1246C86.2385 8.46706 86.5155 7.56748 86.7482 6.96823C87.0563 6.1749 87.4254 5.60823 88.0204 5.01323C88.6154 4.41823 89.182 4.0499 89.9754 3.74106C90.5746 3.50731 91.4746 3.23106 93.1321 3.15492C94.7004 3.08408 95.3081 3.06283 98.4765 3.05929V3.06354ZM109.076 5.88625C107.95 5.88625 107.036 6.79894 107.036 7.92554C107.036 9.05179 107.95 9.96554 109.076 9.96554C110.202 9.96554 111.116 9.05179 111.116 7.92554C111.116 6.79929 110.202 5.88554 109.076 5.88554V5.88625ZM100.002 8.26979C95.1803 8.26979 91.2713 12.1787 91.2713 17C91.2713 21.8213 95.1803 25.7284 100.002 25.7284C104.823 25.7284 108.73 21.8213 108.73 17C108.73 12.1787 104.823 8.26979 100.002 8.26979ZM100.002 11.3333C103.131 11.3333 105.668 13.8702 105.668 17C105.668 20.1294 103.131 22.6667 100.002 22.6667C96.8718 22.6667 94.3349 20.1294 94.3349 17C94.3349 13.8702 96.8718 11.3333 100.002 11.3333Z" fill="white"/>
</svg>
