<svg width="314" height="65" viewBox="0 0 314 65" fill="none" xmlns="http://www.w3.org/2000/svg">
<g clip-path="url(#clip0_126_654)">
<path d="M26.6862 62.1261C29.5256 62.0964 32.0944 60.2541 35.6603 55.8653C39.2707 51.4209 44.5232 43.5959 47.9187 31.345C49.279 26.4298 49.1567 20.1913 45.6798 13.9083C41.8136 6.92477 33.7884 1.45357 24.4029 1.56478C15.6994 1.66857 7.52222 6.56151 3.72277 13.9083C0.516415 20.1172 1.42457 26.1333 2.05473 30.1922C3.48925 39.3998 8.15237 44.8451 16.8744 55.0313C21.582 60.5284 23.9766 62.1557 26.6862 62.1298V62.1261Z" stroke="white" stroke-width="1.85339" stroke-miterlimit="10"/>
<path d="M20.7903 45.2643C23.6394 43.6193 23.2688 37.6436 19.9626 31.917C16.6564 26.1905 11.6665 22.8817 8.81742 24.5266C5.96833 26.1715 6.33891 32.1473 9.64513 37.8738C12.9514 43.6004 17.9412 46.9092 20.7903 45.2643Z" fill="white"/>
<path d="M40.8355 37.4577C44.1417 31.7312 44.5123 25.7554 41.6632 24.1105C38.8141 22.4656 33.8243 25.7744 30.5181 31.5009C27.2118 37.2275 26.8413 43.2032 29.6903 44.8481C32.5394 46.4931 37.5293 43.1843 40.8355 37.4577Z" fill="white"/>
</g>
<path d="M74.2254 43.4822C65.326 43.4822 63.4391 35.484 63.4391 29.0065C63.4391 22.5573 66.2835 14.559 74.2254 14.559C82.1955 14.559 86.3354 21.2899 86.3354 29.5979C86.3354 37.8778 83.153 43.4822 74.2254 43.4822ZM74.8732 39.0325C77.098 39.0325 77.8584 35.3713 77.8584 30.5555C77.7739 24.0781 77.0135 19.0088 74.2817 19.0088C72.085 19.0088 71.2965 22.6699 71.2965 27.4576C71.4091 33.9632 72.1695 39.0325 74.8732 39.0325ZM92.2909 43.4822C90.0661 43.4822 87.8694 41.8487 87.8694 40.8067C87.8694 40.6659 87.8975 40.5532 87.982 40.4406C88.3481 39.8492 88.8551 38.9761 89.1085 36.9766V31.4285C89.0804 29.9077 88.5171 29.2037 88.0947 28.8094C87.7004 28.4151 87.5314 27.9082 87.5314 27.4013C87.5314 25.3172 90.1787 22.6699 92.6852 22.6699C95.2762 22.6699 95.6986 22.9515 95.6986 23.6556C95.6986 23.9654 95.6141 24.416 95.6141 24.9229C95.6141 25.6833 95.6423 26.5 95.6986 26.6127C96.8533 24.3315 98.9092 22.6418 100.683 22.6418C103.19 22.7826 105.33 24.9511 105.725 28.9502C105.837 30.0204 105.837 31.513 105.837 33.0056V35.5121C105.837 36.4415 105.865 36.019 105.865 36.9766C106.119 38.9761 106.654 39.8492 106.992 40.4406C107.048 40.5532 107.076 40.6659 107.076 40.8067C107.076 41.8769 104.823 43.454 102.514 43.454C100.233 43.454 97.9235 41.9332 97.9235 40.8349C97.9235 40.6941 97.9516 40.5532 98.0361 40.4406C98.3741 39.8773 98.9655 39.0606 99.0781 37.23C99.0781 35.484 98.2896 30.2175 97.9235 29.26C97.839 29.091 97.7263 29.0065 97.5855 29.0065C97.0223 29.0065 96.0084 30.471 95.8394 31.0342V36.9766C96.0929 38.9761 96.5998 39.8492 96.9659 40.4406C97.0223 40.5532 97.0504 40.6659 97.0504 40.8067C97.0504 41.9051 94.6566 43.4822 92.2909 43.4822ZM113.122 43.4822C110.615 43.3414 108.447 41.1728 108.081 37.2019C107.968 35.9627 107.94 34.2166 107.94 32.5832C107.94 30.2457 107.94 31.4285 107.94 29.1473C107.686 27.1478 107.18 26.2747 106.813 25.6833C106.729 25.5707 106.701 25.458 106.701 25.3172C106.701 24.247 108.954 22.6699 111.291 22.6699C114.868 22.6699 115.15 24.2752 115.15 25.6552C115.15 26.9225 114.896 28.218 114.896 29.5416C114.924 32.0199 114.952 34.4983 115.882 36.8639C115.938 37.0329 116.051 37.1174 116.192 37.1174C116.755 37.1174 117.769 35.6529 117.994 35.0897V29.1473C117.741 27.1478 117.234 26.2747 116.868 25.6833C116.783 25.5707 116.755 25.4299 116.755 25.3172C116.755 24.2189 119.092 22.6699 121.458 22.6699C123.993 22.6981 125.176 23.4866 125.204 25.2609C125.204 28.049 124.697 31.0061 124.697 33.8505V34.7236C124.725 36.2162 125.316 36.9203 125.711 37.3145C126.077 37.7088 126.274 38.2157 126.274 38.7227C126.274 40.8067 123.627 43.454 121.148 43.454C118.501 43.454 118.107 43.1724 118.107 42.4683C118.107 42.1585 118.191 41.7642 118.191 41.2855C118.163 40.4969 118.191 39.6239 118.135 39.5112C116.924 41.7924 114.924 43.4822 113.122 43.4822ZM131.209 21.9658C129.124 21.9658 127.435 20.5577 127.435 18.8398C127.435 17.1219 129.124 15.3758 131.209 15.3758C133.293 15.3758 135.01 17.1219 135.01 18.8398C135.01 20.5577 133.293 21.9658 131.209 21.9658ZM131.575 43.4822C129.237 43.4822 126.928 42.6936 126.928 41.1447C126.928 40.9475 126.956 40.7504 127.04 40.5532C127.801 38.2157 128.167 38.1313 128.167 35.4276C128.139 33.7379 128.139 34.5264 128.139 32.7522C128.082 30.7245 127.829 28.8376 127.012 27.9927C126.562 27.5421 126.393 27.0915 126.393 26.669C126.393 24.4723 131.237 22.6699 133.884 22.6699C134.87 22.6699 135.574 22.9234 135.574 23.5148V23.6274C135.292 25.627 135.151 27.6829 135.123 29.7106C135.123 31.5975 135.236 33.4562 135.236 35.3431V35.8219C135.236 38.2157 135.602 38.3566 136.334 40.5532C136.39 40.7504 136.419 40.9194 136.419 41.0883C136.419 42.6655 133.856 43.454 131.575 43.4822ZM142.988 43.4822C140.735 43.4822 138.511 42.6936 138.511 41.1165C138.511 40.9475 138.567 40.7504 138.623 40.5251C138.849 39.8492 139.496 39.0325 139.75 37.0611V33.3154C139.75 32.6114 139.834 31.0624 139.834 29.5979C139.834 28.1898 139.75 26.8943 139.412 26.5564C139.384 26.5 139.299 26.4437 139.186 26.3592C139.018 26.3592 138.454 26.2747 138.285 26.2747C137.018 26.1621 136.68 25.7678 136.624 24.2189C136.624 23.3177 136.933 22.7262 137.469 22.6418C140.116 22.1911 139.496 18.7553 144.03 18.7553C145.974 18.7553 146.481 19.1214 146.481 22.6699L147.72 22.6418C148.565 22.6418 149.128 22.7544 149.128 23.4866C149.128 26.1621 148.649 26.2747 146.959 26.2747H146.452V37.0611C146.706 39.0325 147.382 39.8492 147.579 40.5251C147.635 40.7222 147.663 40.8912 147.663 41.0602C147.663 42.6655 145.298 43.4822 142.988 43.4822Z" fill="white"/>
<path d="M162.284 55.1697C161.073 55.1697 159.862 54.3811 159.862 52.6914C159.862 52.5224 159.89 52.3534 159.89 52.1563C160.059 50.9171 161.918 50.3539 161.918 48.7204C161.918 48.5796 161.889 48.4388 161.861 48.298C159.467 51.8183 155.581 54.2685 153.074 54.3248C150.343 54.3248 148.202 51.3677 148.202 48.5515C148.202 47.7347 148.399 46.918 148.794 46.1858C149.836 44.2989 152.173 43.1442 154.483 42.2149L155.299 41.7924C153.948 41.6798 153.243 41.3418 152.23 40.7786C149.554 39.2296 148.202 36.2444 148.202 33.2309C148.202 28.8094 151.131 24.3597 156.961 24.3597C157.017 22.8107 157.665 21.1773 158.425 20.3324C159.524 19.1496 161.045 18.6426 162.312 18.6426C164.621 18.6426 165.888 20.4169 165.888 21.8532C165.888 23.1487 164.903 24.3597 162.453 24.4723C161.805 24.5005 161.242 24.7258 160.707 24.9793C163.579 25.9931 165.973 29.6543 165.973 32.7803C165.973 40.6659 161.185 43.5948 158.2 44.8903C157.327 45.3128 155.299 45.5099 155.299 46.7209C155.356 47.425 155.637 47.7347 156.144 47.7347C157.693 47.7347 160.876 44.7495 161.889 43.9328C162.284 43.6793 162.678 43.5385 163.016 43.5385C164.79 43.5385 165.973 46.5519 165.973 49.509C165.888 52.5224 164.762 55.1697 162.284 55.1697ZM157.355 37.5962C158.454 37.5962 158.96 35.6248 158.96 33.4844C158.96 30.9779 158.256 28.2743 156.989 28.2743C155.75 28.2743 155.158 30.302 155.158 32.4705C155.158 34.9489 155.919 37.5962 157.355 37.5962ZM176.503 43.4822C168.11 43.3414 167.125 37.7088 167.097 33.0338C167.097 28.3306 169.519 22.6699 176.559 22.6699C179.657 22.7262 182.051 23.7683 183.262 25.9086C183.882 26.9788 184.135 27.9363 184.135 28.7812C184.135 32.6114 178.474 33.9632 175.517 33.9632C174.785 33.9632 174.25 33.8787 173.968 33.7379C174.222 35.2023 174.56 39.9618 176.503 39.9618C177.545 39.9618 177.489 38.3284 177.658 36.695C177.827 34.9489 179.291 34.0758 180.812 34.0758C182.642 34.0758 184.107 35.1742 184.163 37.2582C184.163 40.6377 180.389 43.4822 176.503 43.4822ZM175.32 30.8371C176.925 30.6963 177.714 30.0204 177.714 28.7531C177.545 27.3449 176.644 26.1621 175.433 26.1621C174.616 26.1621 173.743 27.7674 173.743 29.1192C173.743 30.0486 174.165 30.8371 175.32 30.8371ZM194.233 43.4822C192.684 43.4822 190.769 43.3414 189.445 42.9189C185.643 41.9051 185.221 39.8492 185.221 38.3566C185.277 37.2019 185.305 36.526 186.038 35.7937C186.629 35.2587 187.502 35.0052 188.46 35.0052C190.628 35.0052 193.163 36.2725 193.163 37.8496C193.163 38.0186 193.135 38.1876 193.05 38.3847C192.825 39.0325 192.515 39.1733 192.543 39.1733C192.543 39.1733 192.684 39.1451 192.966 39.1451C193.388 39.1451 195.022 37.6243 195.022 36.4133C195.022 35.9064 194.768 35.484 194.064 35.2023C192.374 34.4983 190.487 34.6109 188.91 34.0477C186.882 33.3154 185.643 31.2032 185.643 29.4853C185.784 25.6833 188.544 22.6699 194.627 22.6699C200.964 22.6699 201.837 26.0213 201.837 28.7249L201.809 29.4853C201.724 31.0061 200.541 31.6257 199.161 31.6257C196.908 31.6257 194.515 29.8796 194.515 29.3163C194.515 29.091 194.768 28.8939 195.022 28.5841C195.444 28.1335 195.585 27.7392 195.585 27.4857C195.585 27.1478 195.331 26.9507 194.937 26.9507C194.627 26.9507 194.289 27.0351 193.867 27.3731C193.247 27.88 192.6 28.218 192.6 28.8939C192.6 29.2037 192.74 29.5698 193.05 30.0486C193.557 30.8371 195.134 31.344 197.106 32.1326C198.457 32.6677 201.33 33.7379 201.865 37.0611C201.921 37.2864 201.921 37.5398 201.921 37.7651C201.921 41.032 198.063 43.4822 194.233 43.4822ZM204.948 51.593C203.99 51.593 203.315 51.3396 203.315 50.7482L203.343 50.6355C203.709 47.8756 203.793 44.0736 203.793 40.2998C203.793 36.9484 203.737 33.6252 203.709 31.1187C203.681 29.2882 203.427 27.5139 202.442 25.9086C202.301 25.7115 202.273 25.5144 202.273 25.3172C202.273 23.9936 204.723 22.6699 206.919 22.6699C208.497 22.6699 209.933 23.3458 210.271 25.1764C211.651 23.543 213.059 22.6699 214.411 22.6699C218.607 22.6699 221.057 28.049 221.085 33.3718C221.085 38.61 218.776 43.3132 214.298 43.5103C212.777 43.5103 211.285 42.7781 210.271 41.3418L210.299 41.5389C210.327 43.5385 210.581 45.4254 211.397 46.2703C211.848 46.7491 212.017 47.1997 212.017 47.6503C212.017 49.8188 207.454 51.593 204.948 51.593ZM211.792 38.2439C212.974 38.2439 213.509 36.188 213.509 33.935C213.509 31.2595 212.777 28.3306 211.651 28.3306C210.75 28.3306 210.102 29.26 210.017 30.8371C209.961 31.851 209.933 32.3579 209.933 32.7522C209.933 33.3436 209.989 33.7097 210.045 35.2587C210.074 37.0047 210.806 38.2439 211.792 38.2439ZM226.891 43.454C224.243 43.3977 221.737 42.6091 221.737 41.201C221.737 40.4406 222.694 39.821 223.032 37.1456V31.4567C223.032 29.8796 222.469 29.1473 222.018 28.7812C221.202 28.1053 220.892 27.4294 220.892 26.7817C220.892 24.5568 224.694 22.7262 226.75 22.6699C228.383 22.6699 229.791 24.0499 230.242 25.1764C231.875 24.247 233.452 22.9234 234.776 22.9234C236.663 22.9234 238.296 25.965 238.465 29.7669C238.465 31.9918 236.043 33.5689 234.156 33.5689C233.03 33.5689 232.072 33.0056 231.96 31.682C231.791 30.0486 232.016 28.4714 230.974 28.4714C230.186 28.4714 229.876 29.5979 229.763 30.9779C229.763 35.3995 229.791 34.1885 229.791 37.5117C230.073 39.2859 230.101 38.8072 230.27 39.3986C230.524 40.1026 230.439 39.7929 230.805 40.4969L230.89 40.6096C230.918 40.8067 230.946 41.0039 230.946 41.1728C230.946 42.7781 229.003 43.454 226.891 43.454ZM248.45 39.3423C249.492 39.3423 249.971 36.8639 249.971 34.1321C249.971 30.7526 249.239 26.9507 247.943 26.9507C246.704 26.9507 246.141 29.4853 246.141 32.2734C246.141 35.6248 246.957 39.3423 248.45 39.3423ZM248.337 43.4822C242.17 43.4258 239.044 38.61 239.044 33.062C239.044 27.8519 242.085 22.6699 248.168 22.6699C254.195 22.7826 257.152 28.0208 257.152 33.1746C257.152 38.3566 254.195 43.4822 248.337 43.4822ZM272.023 43.4822C270.869 43.4822 269.658 42.9471 268.897 41.7079C268.559 41.1728 267.743 39.5394 266.898 39.2014C266.194 38.948 265.462 38.779 265.011 38.7227L265.124 40.9475C264.786 42.7781 263.321 43.4822 261.744 43.4822C259.547 43.4822 257.097 42.1585 257.097 40.8067C257.097 40.6377 257.154 40.4406 257.266 40.2435C258.252 38.61 258.505 36.8639 258.534 35.0052L258.618 30.8934L258.365 24.7821C258.365 22.6699 257.998 20.6704 257.238 19.8536C256.787 19.403 256.59 18.9243 256.59 18.5018C256.59 16.3333 261.181 14.559 263.687 14.559C264.645 14.559 265.293 14.8125 265.293 15.3758V15.4884C264.983 17.8823 264.87 21.0365 264.842 24.2752C266.306 22.9234 268.024 22.3038 269.658 22.3038C272.587 22.3038 275.15 24.3597 275.15 27.9645C275.15 28.6686 275.037 29.4571 274.84 30.2739C274.333 32.1326 272.671 33.1183 271.15 33.1183C269.742 33.1183 268.278 32.2171 268.137 30.5555C267.996 29.091 267.884 27.6829 267.095 27.4013C266.954 27.4013 265.659 27.7955 264.842 28.0208L264.87 30.8934C264.814 32.3579 264.786 32.7803 264.786 33.2873L264.842 34.5828C266.081 34.1603 267.546 33.9068 268.982 33.9068C269.63 33.9068 270.277 33.9632 270.897 34.0758C272.925 34.4983 275.15 36.8921 275.15 39.821C275.15 40.3279 275.093 40.8349 274.952 41.37C274.586 42.7218 273.319 43.454 272.023 43.4822ZM285.221 43.4822C276.829 43.3414 275.843 37.7088 275.815 33.0338C275.815 28.3306 278.237 22.6699 285.277 22.6699C288.375 22.7262 290.769 23.7683 291.98 25.9086C292.6 26.9788 292.853 27.9363 292.853 28.7812C292.853 32.6114 287.192 33.9632 284.235 33.9632C283.503 33.9632 282.968 33.8787 282.686 33.7379C282.94 35.2023 283.278 39.9618 285.221 39.9618C286.263 39.9618 286.207 38.3284 286.376 36.695C286.545 34.9489 288.009 34.0758 289.53 34.0758C291.36 34.0758 292.825 35.1742 292.881 37.2582C292.881 40.6377 289.107 43.4822 285.221 43.4822ZM284.038 30.8371C285.643 30.6963 286.432 30.0204 286.432 28.7531C286.263 27.3449 285.362 26.1621 284.151 26.1621C283.334 26.1621 282.461 27.7674 282.461 29.1192C282.461 30.0486 282.884 30.8371 284.038 30.8371ZM298.478 43.4822C296.254 43.4822 294.057 41.8487 294.057 40.8067C294.057 40.6659 294.085 40.5532 294.17 40.4406C294.536 39.8492 295.043 38.9761 295.296 36.9766V31.4285C295.268 29.9077 294.705 29.2037 294.282 28.8094C293.888 28.4151 293.719 27.9082 293.719 27.4013C293.719 25.3172 296.366 22.6699 298.873 22.6699C301.464 22.6699 301.886 22.9515 301.886 23.6556C301.886 23.9654 301.802 24.416 301.802 24.9229C301.802 25.6833 301.83 26.5 301.886 26.6127C303.041 24.3315 305.097 22.6418 306.871 22.6418C309.377 22.7826 311.518 24.9511 311.912 28.9502C312.025 30.0204 312.025 31.513 312.025 33.0056V35.5121C312.025 36.4415 312.053 36.019 312.053 36.9766C312.306 38.9761 312.841 39.8492 313.179 40.4406C313.236 40.5532 313.264 40.6659 313.264 40.8067C313.264 41.8769 311.011 43.454 308.701 43.454C306.42 43.454 304.111 41.9332 304.111 40.8349C304.111 40.6941 304.139 40.5532 304.224 40.4406C304.562 39.8773 305.153 39.0606 305.266 37.23C305.266 35.484 304.477 30.2175 304.111 29.26C304.026 29.091 303.914 29.0065 303.773 29.0065C303.21 29.0065 302.196 30.471 302.027 31.0342V36.9766C302.28 38.9761 302.787 39.8492 303.153 40.4406C303.21 40.5532 303.238 40.6659 303.238 40.8067C303.238 41.9051 300.844 43.4822 298.478 43.4822Z" fill="#04FF00"/>
<defs>
<clipPath id="clip0_126_654">
<rect width="49.1481" height="62.4184" fill="white" transform="translate(0.508911 0.638184)"/>
</clipPath>
</defs>
</svg>
