<svg width="215" height="34" viewBox="0 0 215 34" fill="none" xmlns="http://www.w3.org/2000/svg">
<g clip-path="url(#clip0_128_1475)">
<path d="M37.0772 33.0663C38.6041 33.0504 39.9855 32.0597 41.9031 29.6995C43.8446 27.3095 46.6692 23.1015 48.4952 16.5134C49.2267 13.8702 49.1609 10.5154 47.2912 7.13661C45.2121 3.3811 40.8964 0.438897 35.8492 0.498698C31.1688 0.554513 26.7715 3.18576 24.7283 7.13661C23.004 10.4755 23.4924 13.7107 23.8312 15.8935C24.6027 20.845 27.1103 23.7732 31.8007 29.251C34.3323 32.2072 35.62 33.0823 37.0772 33.0683V33.0663Z" stroke="white" stroke-width="0.996683" stroke-miterlimit="10"/>
<path d="M33.9067 23.9983C35.4388 23.1137 35.2396 19.9001 33.4616 16.8206C31.6836 13.7411 29.0003 11.9618 27.4681 12.8463C25.936 13.7309 26.1353 16.9444 27.9133 20.024C29.6912 23.1035 32.3746 24.8828 33.9067 23.9983Z" fill="white"/>
<path d="M44.6861 19.8005C46.4641 16.7209 46.6633 13.5074 45.1312 12.6228C43.5991 11.7383 40.9157 13.5176 39.1377 16.5971C37.3598 19.6766 37.1605 22.8902 38.6926 23.7748C40.2248 24.6593 42.9081 22.88 44.6861 19.8005Z" fill="white"/>
</g>
<path d="M62.642 22.6049C57.8562 22.6049 56.8415 18.3038 56.8415 14.8205C56.8415 11.3523 58.3711 7.05114 62.642 7.05114C66.928 7.05114 69.1543 10.6708 69.1543 15.1385C69.1543 19.5911 67.4429 22.6049 62.642 22.6049ZM62.9903 20.212C64.1868 20.212 64.5957 18.2432 64.5957 15.6534C64.5502 12.1701 64.1413 9.44403 62.6723 9.44403C61.491 9.44403 61.0669 11.4129 61.0669 13.9875C61.1275 17.486 61.5364 20.212 62.9903 20.212ZM72.3569 22.6049C71.1605 22.6049 69.9792 21.7265 69.9792 21.1662C69.9792 21.0904 69.9943 21.0299 70.0398 20.9693C70.2367 20.6512 70.5093 20.1817 70.6456 19.1065V16.1229C70.6304 15.3051 70.3275 14.9265 70.1004 14.7144C69.8883 14.5024 69.7975 14.2298 69.7975 13.9572C69.7975 12.8365 71.2211 11.4129 72.569 11.4129C73.9623 11.4129 74.1895 11.5643 74.1895 11.9429C74.1895 12.1095 74.144 12.3518 74.144 12.6244C74.144 13.0334 74.1592 13.4726 74.1895 13.5331C74.8104 12.3064 75.916 11.3977 76.8701 11.3977C78.218 11.4734 79.369 12.6396 79.581 14.7902C79.6416 15.3657 79.6416 16.1683 79.6416 16.971V18.3189C79.6416 18.8187 79.6568 18.5915 79.6568 19.1065C79.7931 20.1817 80.0808 20.6512 80.2626 20.9693C80.2929 21.0299 80.308 21.0904 80.308 21.1662C80.308 21.7417 79.0964 22.5898 77.8545 22.5898C76.6278 22.5898 75.3859 21.7719 75.3859 21.1813C75.3859 21.1056 75.4011 21.0299 75.4465 20.9693C75.6282 20.6664 75.9463 20.2272 76.0069 19.2428C76.0069 18.3038 75.5828 15.4717 75.3859 14.9568C75.3405 14.8659 75.2799 14.8205 75.2042 14.8205C74.9013 14.8205 74.3561 15.608 74.2652 15.9109V19.1065C74.4015 20.1817 74.6741 20.6512 74.871 20.9693C74.9013 21.0299 74.9164 21.0904 74.9164 21.1662C74.9164 21.7568 73.6291 22.6049 72.3569 22.6049ZM83.5591 22.6049C82.2112 22.5292 81.045 21.363 80.8481 19.2276C80.7875 18.5612 80.7724 17.6223 80.7724 16.7439C80.7724 15.4868 80.7724 16.1229 80.7724 14.8962C80.6361 13.8209 80.3635 13.3514 80.1666 13.0334C80.1212 12.9728 80.106 12.9122 80.106 12.8365C80.106 12.261 81.3176 11.4129 82.5746 11.4129C84.498 11.4129 84.6495 12.2761 84.6495 13.0182C84.6495 13.6997 84.5132 14.3964 84.5132 15.1082C84.5283 16.441 84.5435 17.7737 85.0433 19.0459C85.0735 19.1367 85.1341 19.1822 85.2099 19.1822C85.5127 19.1822 86.058 18.3946 86.1791 18.0917V14.8962C86.0428 13.8209 85.7702 13.3514 85.5733 13.0334C85.5279 12.9728 85.5127 12.8971 85.5127 12.8365C85.5127 12.2458 86.7698 11.4129 88.0419 11.4129C89.405 11.428 90.0411 11.8521 90.0562 12.8062C90.0562 14.3055 89.7836 15.8957 89.7836 17.4254V17.8949C89.7987 18.6975 90.1168 19.0762 90.3288 19.2882C90.5257 19.5002 90.6317 19.7728 90.6317 20.0454C90.6317 21.1662 89.2081 22.5898 87.8753 22.5898C86.4517 22.5898 86.2397 22.4383 86.2397 22.0597C86.2397 21.8931 86.2851 21.6811 86.2851 21.4236C86.27 20.9996 86.2851 20.5301 86.2548 20.4695C85.6036 21.6962 84.5283 22.6049 83.5591 22.6049ZM93.2854 11.0342C92.1647 11.0342 91.256 10.277 91.256 9.35316C91.256 8.42932 92.1647 7.49034 93.2854 7.49034C94.4061 7.49034 95.3299 8.42932 95.3299 9.35316C95.3299 10.277 94.4061 11.0342 93.2854 11.0342ZM93.4823 22.6049C92.2252 22.6049 90.9834 22.1809 90.9834 21.3479C90.9834 21.2419 90.9985 21.1359 91.0439 21.0299C91.4529 19.7728 91.6497 19.7274 91.6497 18.2735C91.6346 17.3648 91.6346 17.7888 91.6346 16.8347C91.6043 15.7443 91.468 14.7296 91.0288 14.2752C90.7865 14.0329 90.6956 13.7906 90.6956 13.5634C90.6956 12.3821 93.3005 11.4129 94.7241 11.4129C95.2542 11.4129 95.6328 11.5492 95.6328 11.8672V11.9278C95.4814 13.0031 95.4057 14.1086 95.3905 15.1991C95.3905 16.2138 95.4511 17.2133 95.4511 18.2281V18.4855C95.4511 19.7728 95.648 19.8486 96.0417 21.0299C96.072 21.1359 96.0872 21.2267 96.0872 21.3176C96.0872 22.1657 94.709 22.5898 93.4823 22.6049ZM99.6202 22.6049C98.4086 22.6049 97.2122 22.1809 97.2122 21.3327C97.2122 21.2419 97.2424 21.1359 97.2727 21.0147C97.3939 20.6512 97.7422 20.212 97.8785 19.1519V17.1376C97.8785 16.759 97.924 15.926 97.924 15.1385C97.924 14.3813 97.8785 13.6846 97.6968 13.5029C97.6817 13.4726 97.6362 13.4423 97.5756 13.3968C97.4848 13.3968 97.1819 13.3514 97.091 13.3514C96.4095 13.2908 96.2277 13.0788 96.1975 12.2458C96.1975 11.7612 96.364 11.4432 96.6518 11.3977C98.0754 11.1554 97.7422 9.30772 100.181 9.30772C101.226 9.30772 101.498 9.50461 101.498 11.4129L102.165 11.3977C102.619 11.3977 102.922 11.4583 102.922 11.8521C102.922 13.2908 102.664 13.3514 101.756 13.3514H101.483V19.1519C101.619 20.212 101.983 20.6512 102.089 21.0147C102.119 21.1207 102.134 21.2116 102.134 21.3025C102.134 22.1657 100.862 22.6049 99.6202 22.6049Z" fill="white"/>
<path d="M109.996 28.89C109.345 28.89 108.694 28.466 108.694 27.5573C108.694 27.4664 108.709 27.3756 108.709 27.2695C108.8 26.6032 109.8 26.3003 109.8 25.4219C109.8 25.3461 109.784 25.2704 109.769 25.1947C108.482 27.0878 106.392 28.4054 105.044 28.4357C103.575 28.4357 102.424 26.8455 102.424 25.331C102.424 24.8918 102.53 24.4526 102.742 24.0588C103.302 23.0441 104.559 22.4232 105.801 21.9234L106.241 21.6962C105.514 21.6356 105.135 21.4539 104.59 21.151C103.151 20.318 102.424 18.7127 102.424 17.0922C102.424 14.7144 103.999 12.3216 107.134 12.3216C107.164 11.4886 107.513 10.6102 107.922 10.1558C108.512 9.51975 109.33 9.24714 110.012 9.24714C111.253 9.24714 111.935 10.2013 111.935 10.9737C111.935 11.6703 111.405 12.3216 110.087 12.3821C109.739 12.3973 109.436 12.5184 109.148 12.6547C110.693 13.2 111.98 15.1688 111.98 16.8499C111.98 21.0904 109.406 22.6655 107.8 23.3622C107.331 23.5893 106.241 23.6953 106.241 24.3466C106.271 24.7252 106.422 24.8918 106.695 24.8918C107.528 24.8918 109.239 23.2864 109.784 22.8472C109.996 22.7109 110.208 22.6352 110.39 22.6352C111.344 22.6352 111.98 24.2557 111.98 25.8459C111.935 27.4664 111.329 28.89 109.996 28.89ZM107.346 19.4396C107.937 19.4396 108.209 18.3795 108.209 17.2285C108.209 15.8806 107.831 14.4267 107.149 14.4267C106.483 14.4267 106.165 15.5171 106.165 16.6833C106.165 18.016 106.574 19.4396 107.346 19.4396ZM117.643 22.6049C113.13 22.5292 112.6 19.5002 112.585 16.9862C112.585 14.457 113.887 11.4129 117.673 11.4129C119.339 11.4432 120.627 12.0035 121.278 13.1545C121.611 13.73 121.747 14.245 121.747 14.6993C121.747 16.759 118.703 17.486 117.113 17.486C116.719 17.486 116.431 17.4405 116.28 17.3648C116.416 18.1523 116.598 20.7118 117.643 20.7118C118.203 20.7118 118.173 19.8334 118.264 18.955C118.355 18.016 119.142 17.5465 119.96 17.5465C120.945 17.5465 121.732 18.1372 121.762 19.2579C121.762 21.0753 119.733 22.6049 117.643 22.6049ZM117.007 15.8049C117.87 15.7291 118.294 15.3657 118.294 14.6842C118.203 13.9269 117.719 13.2908 117.068 13.2908C116.628 13.2908 116.159 14.1541 116.159 14.881C116.159 15.3808 116.386 15.8049 117.007 15.8049ZM127.178 22.6049C126.345 22.6049 125.315 22.5292 124.603 22.302C122.558 21.7568 122.331 20.6512 122.331 19.8486C122.362 19.2276 122.377 18.8641 122.77 18.4704C123.088 18.1826 123.558 18.0463 124.073 18.0463C125.239 18.0463 126.602 18.7278 126.602 19.5759C126.602 19.6668 126.587 19.7577 126.541 19.8637C126.42 20.212 126.254 20.2878 126.269 20.2878C126.269 20.2878 126.345 20.2726 126.496 20.2726C126.723 20.2726 127.602 19.4548 127.602 18.8036C127.602 18.5309 127.465 18.3038 127.087 18.1523C126.178 17.7737 125.163 17.8343 124.315 17.5314C123.225 17.1376 122.558 16.0018 122.558 15.0779C122.634 13.0334 124.118 11.4129 127.39 11.4129C130.797 11.4129 131.267 13.2151 131.267 14.669L131.252 15.0779C131.206 15.8957 130.57 16.2289 129.828 16.2289C128.616 16.2289 127.329 15.2899 127.329 14.987C127.329 14.8659 127.465 14.7599 127.602 14.5933C127.829 14.351 127.905 14.1389 127.905 14.0026C127.905 13.8209 127.768 13.7149 127.556 13.7149C127.39 13.7149 127.208 13.7603 126.981 13.9421C126.648 14.2147 126.299 14.3964 126.299 14.7599C126.299 14.9265 126.375 15.1234 126.541 15.3808C126.814 15.8049 127.662 16.0775 128.722 16.5015C129.449 16.7893 130.994 17.3648 131.282 19.1519C131.312 19.273 131.312 19.4094 131.312 19.5305C131.312 21.2873 129.237 22.6049 127.178 22.6049ZM132.94 26.9666C132.425 26.9666 132.061 26.8303 132.061 26.5123L132.076 26.4517C132.273 24.9675 132.319 22.923 132.319 20.8935C132.319 19.0913 132.288 17.3042 132.273 15.9563C132.258 14.9719 132.122 14.0178 131.592 13.1545C131.516 13.0485 131.501 12.9425 131.501 12.8365C131.501 12.1247 132.819 11.4129 134 11.4129C134.848 11.4129 135.62 11.7763 135.802 12.7608C136.544 11.8824 137.301 11.4129 138.028 11.4129C140.285 11.4129 141.603 14.3055 141.618 17.1679C141.618 19.9849 140.376 22.514 137.968 22.6201C137.15 22.6201 136.347 22.2263 135.802 21.4539L135.817 21.5599C135.832 22.6352 135.969 23.6499 136.408 24.1043C136.65 24.3617 136.741 24.604 136.741 24.8464C136.741 26.0125 134.288 26.9666 132.94 26.9666ZM136.62 19.788C137.256 19.788 137.544 18.6824 137.544 17.4708C137.544 16.032 137.15 14.457 136.544 14.457C136.06 14.457 135.711 14.9568 135.666 15.8049C135.636 16.3501 135.62 16.6227 135.62 16.8347C135.62 17.1528 135.651 17.3496 135.681 18.1826C135.696 19.1216 136.09 19.788 136.62 19.788ZM144.74 22.5898C143.316 22.5595 141.968 22.1354 141.968 21.3782C141.968 20.9693 142.483 20.6361 142.665 19.1973V16.1381C142.665 15.2899 142.362 14.8962 142.12 14.6993C141.68 14.3358 141.514 13.9723 141.514 13.624C141.514 12.4276 143.558 11.4432 144.664 11.4129C145.542 11.4129 146.3 12.155 146.542 12.7608C147.42 12.261 148.268 11.5492 148.98 11.5492C149.995 11.5492 150.873 13.1848 150.964 15.2294C150.964 16.4258 149.662 17.2739 148.647 17.2739C148.041 17.2739 147.526 16.971 147.466 16.2592C147.375 15.3808 147.496 14.5327 146.936 14.5327C146.512 14.5327 146.345 15.1385 146.284 15.8806C146.284 18.2583 146.3 17.6071 146.3 19.3942C146.451 20.3483 146.466 20.0909 146.557 20.4089C146.693 20.7875 146.648 20.6209 146.845 20.9996L146.89 21.0601C146.905 21.1662 146.92 21.2722 146.92 21.363C146.92 22.2263 145.875 22.5898 144.74 22.5898ZM156.333 20.3786C156.894 20.3786 157.151 19.0459 157.151 17.5768C157.151 15.7594 156.758 13.7149 156.061 13.7149C155.394 13.7149 155.092 15.0779 155.092 16.5773C155.092 18.3795 155.531 20.3786 156.333 20.3786ZM156.273 22.6049C152.956 22.5746 151.275 19.9849 151.275 17.0013C151.275 14.1995 152.911 11.4129 156.182 11.4129C159.423 11.4734 161.013 14.2904 161.013 17.0619C161.013 19.8486 159.423 22.6049 156.273 22.6049ZM169.01 22.6049C168.389 22.6049 167.738 22.3172 167.329 21.6508C167.148 21.363 166.708 20.4846 166.254 20.3029C165.875 20.1666 165.482 20.0757 165.239 20.0454L165.3 21.2419C165.118 22.2263 164.331 22.6049 163.483 22.6049C162.301 22.6049 160.984 21.8931 160.984 21.1662C160.984 21.0753 161.014 20.9693 161.075 20.8633C161.605 19.9849 161.741 19.0459 161.756 18.0463L161.801 15.8352L161.665 12.5487C161.665 11.4129 161.468 10.3376 161.059 9.89837C160.817 9.65606 160.711 9.39859 160.711 9.17142C160.711 8.00526 163.18 7.05114 164.528 7.05114C165.042 7.05114 165.391 7.18744 165.391 7.49034V7.55092C165.224 8.83823 165.164 10.5345 165.148 12.2761C165.936 11.5492 166.86 11.216 167.738 11.216C169.313 11.216 170.692 12.3216 170.692 14.2601C170.692 14.6387 170.631 15.0628 170.525 15.502C170.252 16.5015 169.359 17.0316 168.541 17.0316C167.784 17.0316 166.996 16.547 166.92 15.6534C166.845 14.8659 166.784 14.1086 166.36 13.9572C166.284 13.9572 165.588 14.1692 165.148 14.2904L165.164 15.8352C165.133 16.6227 165.118 16.8499 165.118 17.1225L165.148 17.8191C165.815 17.592 166.602 17.4557 167.375 17.4557C167.723 17.4557 168.071 17.486 168.405 17.5465C169.495 17.7737 170.692 19.061 170.692 20.6361C170.692 20.9087 170.661 21.1813 170.585 21.4691C170.389 22.196 169.707 22.5898 169.01 22.6049ZM176.108 22.6049C171.594 22.5292 171.064 19.5002 171.049 16.9862C171.049 14.457 172.352 11.4129 176.138 11.4129C177.804 11.4432 179.091 12.0035 179.742 13.1545C180.076 13.73 180.212 14.245 180.212 14.6993C180.212 16.759 177.168 17.486 175.577 17.486C175.184 17.486 174.896 17.4405 174.745 17.3648C174.881 18.1523 175.063 20.7118 176.108 20.7118C176.668 20.7118 176.638 19.8334 176.729 18.955C176.819 18.016 177.607 17.5465 178.425 17.5465C179.409 17.5465 180.197 18.1372 180.227 19.2579C180.227 21.0753 178.198 22.6049 176.108 22.6049ZM175.471 15.8049C176.335 15.7291 176.759 15.3657 176.759 14.6842C176.668 13.9269 176.183 13.2908 175.532 13.2908C175.093 13.2908 174.623 14.1541 174.623 14.881C174.623 15.3808 174.851 15.8049 175.471 15.8049ZM183.237 22.6049C182.04 22.6049 180.859 21.7265 180.859 21.1662C180.859 21.0904 180.874 21.0299 180.92 20.9693C181.117 20.6512 181.389 20.1817 181.526 19.1065V16.1229C181.51 15.3051 181.207 14.9265 180.98 14.7144C180.768 14.5024 180.677 14.2298 180.677 13.9572C180.677 12.8365 182.101 11.4129 183.449 11.4129C184.842 11.4129 185.069 11.5643 185.069 11.9429C185.069 12.1095 185.024 12.3518 185.024 12.6244C185.024 13.0334 185.039 13.4726 185.069 13.5331C185.69 12.3064 186.796 11.3977 187.75 11.3977C189.098 11.4734 190.249 12.6396 190.461 14.7902C190.522 15.3657 190.522 16.1683 190.522 16.971V18.3189C190.522 18.8187 190.537 18.5915 190.537 19.1065C190.673 20.1817 190.961 20.6512 191.143 20.9693C191.173 21.0299 191.188 21.0904 191.188 21.1662C191.188 21.7417 189.976 22.5898 188.734 22.5898C187.508 22.5898 186.266 21.7719 186.266 21.1813C186.266 21.1056 186.281 21.0299 186.326 20.9693C186.508 20.6664 186.826 20.2272 186.887 19.2428C186.887 18.3038 186.463 15.4717 186.266 14.9568C186.22 14.8659 186.16 14.8205 186.084 14.8205C185.781 14.8205 185.236 15.608 185.145 15.9109V19.1065C185.281 20.1817 185.554 20.6512 185.751 20.9693C185.781 21.0299 185.796 21.0904 185.796 21.1662C185.796 21.7568 184.509 22.6049 183.237 22.6049Z" fill="#04FF00"/>
<defs>
<clipPath id="clip0_128_1475">
<rect width="26.43" height="33.5663" fill="white" transform="translate(23)"/>
</clipPath>
</defs>
</svg>
