<svg width="40" height="39" viewBox="0 0 40 39" fill="none" xmlns="http://www.w3.org/2000/svg">
<g clip-path="url(#clip0_21_155)">
<path fill-rule="evenodd" clip-rule="evenodd" d="M38.3949 33.6987C38.0179 34.636 37.1469 35.9534 35.8989 36.8907C35.1839 37.4227 34.3259 37.942 33.1559 38.284C31.9079 38.6514 30.3609 38.7654 28.4369 38.7654H10.8869C8.96286 38.7654 7.42887 38.6387 6.16787 38.284C4.99787 37.942 4.13987 37.4354 3.42487 36.8907C2.18987 35.966 1.30587 34.636 0.928865 33.6987C0.174865 31.8114 0.161865 29.6707 0.161865 28.3154V11.2154C0.161865 9.86005 0.174865 7.71938 0.928865 5.83205C1.30587 4.89471 2.17687 3.57738 3.42487 2.64005C4.13987 2.10805 4.99787 1.58871 6.16787 1.24671C7.42887 0.892048 8.96286 0.765381 10.8869 0.765381H28.4369C30.3609 0.765381 31.8949 0.892048 33.1559 1.24671C34.3259 1.58871 35.1839 2.09538 35.8989 2.64005C37.1339 3.56471 38.0179 4.89471 38.3949 5.83205C39.1619 7.71938 39.1619 9.87271 39.1619 11.2154V28.3154C39.1619 29.6707 39.1489 31.8114 38.3949 33.6987Z" fill="white"/>
<path d="M23.0029 23.7048C22.9509 23.2488 22.7949 22.9194 22.4829 22.6154C21.8979 22.0201 20.8709 21.6274 19.6619 21.6274C18.4529 21.6274 17.4259 22.0074 16.8409 22.6154C16.5419 22.9321 16.3729 23.2488 16.3209 23.7048C16.2169 24.5914 16.2819 25.3514 16.3859 26.5801C16.4899 27.7454 16.6849 29.3034 16.9319 30.8741C17.1139 32.0014 17.2569 32.6094 17.3869 33.0401C17.6079 33.7494 18.4009 34.3574 19.6619 34.3574C20.9229 34.3574 21.7289 33.7368 21.9369 33.0401C22.0669 32.6094 22.2099 32.0014 22.3919 30.8741C22.6389 29.2908 22.8339 27.7454 22.9379 26.5801C23.0549 25.3514 23.1069 24.5914 23.0029 23.7048Z" fill="black"/>
<path d="M22.8599 17.2447C22.8599 18.9673 21.4299 20.3607 19.6619 20.3607C17.8939 20.3607 16.4639 18.9673 16.4639 17.2447C16.4639 15.522 17.8939 14.1287 19.6619 14.1287C21.4299 14.1287 22.8599 15.5347 22.8599 17.2447Z" fill="black"/>
<path d="M19.6229 4.97072C12.1609 4.99606 6.05086 10.8987 5.94686 18.1694C5.86886 24.0594 9.72986 29.1007 15.1249 30.9501C15.2549 31.0007 15.3849 30.8867 15.3719 30.7601C15.3069 30.3041 15.2289 29.8481 15.1769 29.3921C15.1509 29.2274 15.0469 29.1007 14.9039 29.0247C10.6399 27.2134 7.66286 23.0461 7.71486 18.2201C7.77986 11.8867 13.0839 6.73139 19.5709 6.68072C26.2139 6.63006 31.6349 11.8741 31.6349 18.3341C31.6349 23.1094 28.6709 27.2134 24.4459 29.0247C24.2899 29.0881 24.1859 29.2274 24.1729 29.3921C24.1079 29.8481 24.0429 30.3041 23.9779 30.7601C23.9519 30.8994 24.0949 31.0007 24.2249 30.9501C29.5679 29.1261 33.4029 24.1607 33.4029 18.3341C33.3769 10.9621 27.2019 4.95806 19.6229 4.97072Z" fill="black"/>
<path d="M19.3109 9.40407C14.4489 9.5814 10.5489 13.4954 10.4839 18.2327C10.4449 21.3487 12.0439 24.1101 14.5009 25.7441C14.6179 25.8201 14.7869 25.7314 14.7869 25.5921C14.7479 25.0474 14.7479 24.5661 14.7739 24.0594C14.7869 23.8947 14.7219 23.7427 14.5919 23.6287C13.0969 22.2607 12.1869 20.3101 12.2389 18.1567C12.3429 14.3567 15.4759 11.2661 19.3759 11.1141C23.6139 10.9494 27.0979 14.2681 27.0979 18.3467C27.0979 20.4241 26.1879 22.2987 24.7449 23.6287C24.6279 23.7427 24.5629 23.8947 24.5629 24.0594C24.5889 24.5534 24.5759 25.0347 24.5499 25.5794C24.5369 25.7187 24.7059 25.8201 24.8359 25.7314C27.2539 24.1227 28.8529 21.3994 28.8529 18.3341C28.8659 13.2927 24.5369 9.2014 19.3109 9.40407Z" fill="black"/>
</g>
<defs>
<clipPath id="clip0_21_155">
<rect width="39" height="38" fill="white" transform="translate(0.161865 0.765381)"/>
</clipPath>
</defs>
</svg>
