<svg width="50" height="50" viewBox="0 0 50 50" fill="none" xmlns="http://www.w3.org/2000/svg">
<g clip-path="url(#clip0_124_24)">
<path fill-rule="evenodd" clip-rule="evenodd" d="M48.1918 42.732C47.7182 43.9407 46.6238 45.6394 45.0558 46.848C44.1575 47.534 43.0795 48.2037 41.6095 48.6447C40.0415 49.1184 38.0979 49.2654 35.6805 49.2654H13.6305C11.2132 49.2654 9.28585 49.102 7.70152 48.6447C6.23152 48.2037 5.15352 47.5504 4.25518 46.848C2.70352 45.6557 1.59285 43.9407 1.11918 42.732C0.171851 40.2984 0.155518 37.538 0.155518 35.7904V13.7404C0.155518 11.9927 0.171851 9.23238 1.11918 6.79871C1.59285 5.59005 2.68718 3.89138 4.25518 2.68271C5.15352 1.99671 6.23152 1.32705 7.70152 0.886047C9.28585 0.428714 11.2132 0.265381 13.6305 0.265381H35.6805C38.0979 0.265381 40.0252 0.428714 41.6095 0.886047C43.0795 1.32705 44.1575 1.98038 45.0558 2.68271C46.6075 3.87505 47.7182 5.59005 48.1918 6.79871C49.1555 9.23238 49.1555 12.009 49.1555 13.7404V35.7904C49.1555 37.538 49.1392 40.2984 48.1918 42.732Z" fill="white"/>
<path d="M28.8531 29.8449C28.7878 29.2569 28.5918 28.8323 28.1998 28.4403C27.4648 27.6726 26.1745 27.1663 24.6555 27.1663C23.1365 27.1663 21.8461 27.6563 21.1111 28.4403C20.7355 28.8486 20.5231 29.2569 20.4578 29.8449C20.3271 30.9883 20.4088 31.9683 20.5395 33.5526C20.6701 35.0553 20.9151 37.0643 21.2255 39.0896C21.4541 40.5433 21.6338 41.3273 21.7971 41.8826C22.0748 42.7973 23.0711 43.5813 24.6555 43.5813C26.2398 43.5813 27.2525 42.7809 27.5138 41.8826C27.6771 41.3273 27.8568 40.5433 28.0855 39.0896C28.3958 37.0479 28.6408 35.0553 28.7715 33.5526C28.9185 31.9683 28.9838 30.9883 28.8531 29.8449Z" fill="black"/>
<path d="M28.6735 21.5151C28.6735 23.7364 26.8768 25.5331 24.6555 25.5331C22.4341 25.5331 20.6375 23.7364 20.6375 21.5151C20.6375 19.2937 22.4341 17.4971 24.6555 17.4971C26.8768 17.4971 28.6735 19.3101 28.6735 21.5151Z" fill="black"/>
<path d="M24.6065 5.68801C15.2312 5.72068 7.55449 13.332 7.42382 22.7073C7.32582 30.3023 12.1768 36.803 18.9552 39.1877C19.1185 39.253 19.2818 39.106 19.2655 38.9427C19.1838 38.3547 19.0858 37.7667 19.0205 37.1787C18.9878 36.9663 18.8572 36.803 18.6775 36.705C13.3202 34.3693 9.57982 28.9957 9.64515 22.7727C9.72682 14.606 16.3908 7.95835 24.5412 7.89301C32.8875 7.82768 39.6985 14.5897 39.6985 22.9197C39.6985 29.0773 35.9745 34.3693 30.6662 36.705C30.4702 36.7867 30.3395 36.9663 30.3232 37.1787C30.2415 37.7667 30.1598 38.3547 30.0782 38.9427C30.0455 39.1223 30.2252 39.253 30.3885 39.1877C37.1015 36.8357 41.9198 30.433 41.9198 22.9197C41.8872 13.4137 34.1288 5.67168 24.6065 5.68801Z" fill="black"/>
<path d="M24.2145 11.4046C18.1058 11.6332 13.2058 16.6802 13.1242 22.7889C13.0752 26.8069 15.0842 30.3676 18.1712 32.4746C18.3182 32.5726 18.5305 32.4582 18.5305 32.2786C18.4815 31.5762 18.4815 30.9556 18.5142 30.3022C18.5305 30.0899 18.4488 29.8939 18.2855 29.7469C16.4072 27.9829 15.2638 25.4676 15.3292 22.6909C15.4598 17.7909 19.3962 13.8056 24.2962 13.6096C29.6208 13.3972 33.9982 17.6766 33.9982 22.9359C33.9982 25.6146 32.8548 28.0319 31.0418 29.7469C30.8948 29.8939 30.8132 30.0899 30.8132 30.3022C30.8458 30.9392 30.8295 31.5599 30.7968 32.2622C30.7805 32.4419 30.9928 32.5726 31.1562 32.4582C34.1942 30.3839 36.2032 26.8722 36.2032 22.9196C36.2195 16.4189 30.7805 11.1432 24.2145 11.4046Z" fill="black"/>
</g>
<defs>
<clipPath id="clip0_124_24">
<rect width="49" height="49" fill="white" transform="translate(0.155518 0.265381)"/>
</clipPath>
</defs>
</svg>
