<svg width="215" height="34" viewBox="0 0 215 34" fill="none" xmlns="http://www.w3.org/2000/svg">
<g clip-path="url(#clip0_128_1475)">
<path fill-rule="evenodd" clip-rule="evenodd" d="M124.312 29.4667C123.973 30.3053 123.192 31.484 122.072 32.3227C121.43 32.7987 120.66 33.2633 119.61 33.5693C118.49 33.898 117.102 34 115.375 34H99.625C97.8983 34 96.5217 33.8867 95.39 33.5693C94.34 33.2633 93.57 32.81 92.9283 32.3227C91.82 31.4953 91.0267 30.3053 90.6883 29.4667C90.0117 27.778 90 25.8627 90 24.65V9.35C90 8.13733 90.0117 6.222 90.6883 4.53333C91.0267 3.69467 91.8083 2.516 92.9283 1.67733C93.57 1.20133 94.34 0.736667 95.39 0.430667C96.5217 0.113333 97.8983 0 99.625 0H115.375C117.102 0 118.478 0.113333 119.61 0.430667C120.66 0.736667 121.43 1.19 122.072 1.67733C123.18 2.50467 123.973 3.69467 124.312 4.53333C125 6.222 125 8.14867 125 9.35V24.65C125 25.8627 124.988 27.778 124.312 29.4667Z" fill="white"/>
<path d="M110.498 20.5247C110.452 20.1167 110.312 19.822 110.032 19.55C109.507 19.0173 108.585 18.666 107.5 18.666C106.415 18.666 105.493 19.006 104.968 19.55C104.7 19.8333 104.548 20.1167 104.502 20.5247C104.408 21.318 104.467 21.998 104.56 23.0973C104.653 24.14 104.828 25.534 105.05 26.9393C105.213 27.948 105.342 28.492 105.458 28.8773C105.657 29.512 106.368 30.056 107.5 30.056C108.632 30.056 109.355 29.5007 109.542 28.8773C109.658 28.492 109.787 27.948 109.95 26.9393C110.172 25.5227 110.347 24.14 110.44 23.0973C110.545 21.998 110.592 21.318 110.498 20.5247Z" fill="black"/>
<path d="M110.37 14.7448C110.37 16.2861 109.087 17.5328 107.5 17.5328C105.913 17.5328 104.63 16.2861 104.63 14.7448C104.63 13.2035 105.913 11.9568 107.5 11.9568C109.087 11.9568 110.37 13.2148 110.37 14.7448Z" fill="black"/>
<path d="M107.465 3.76271C100.768 3.78538 95.285 9.06671 95.1917 15.572C95.1217 20.842 98.5867 25.3527 103.428 27.0074C103.545 27.0527 103.662 26.9507 103.65 26.8374C103.592 26.4294 103.522 26.0214 103.475 25.6134C103.452 25.466 103.358 25.3527 103.23 25.2847C99.4034 23.664 96.7317 19.9354 96.7784 15.6174C96.8367 9.95071 101.597 5.33805 107.418 5.29271C113.38 5.24738 118.245 9.93938 118.245 15.7194C118.245 19.992 115.585 23.664 111.793 25.2847C111.653 25.3414 111.56 25.466 111.548 25.6134C111.49 26.0214 111.432 26.4294 111.373 26.8374C111.35 26.962 111.478 27.0527 111.595 27.0074C116.39 25.3754 119.832 20.9327 119.832 15.7194C119.808 9.12338 114.267 3.75138 107.465 3.76271Z" fill="black"/>
<path d="M107.185 7.72936C102.822 7.88803 99.3217 11.39 99.2633 15.6287C99.2283 18.4167 100.663 20.8874 102.868 22.3494C102.973 22.4174 103.125 22.338 103.125 22.2134C103.09 21.726 103.09 21.2954 103.113 20.842C103.125 20.6947 103.067 20.5587 102.95 20.4567C101.608 19.2327 100.792 17.4874 100.838 15.5607C100.932 12.1607 103.743 9.39536 107.243 9.25936C111.047 9.11203 114.173 12.0814 114.173 15.7307C114.173 17.5894 113.357 19.2667 112.062 20.4567C111.957 20.5587 111.898 20.6947 111.898 20.842C111.922 21.284 111.91 21.7147 111.887 22.202C111.875 22.3267 112.027 22.4174 112.143 22.338C114.313 20.8987 115.748 18.462 115.748 15.7194C115.76 11.2087 111.875 7.54803 107.185 7.72936Z" fill="black"/>
</g>
<defs>
<clipPath id="clip0_128_1475">
<rect width="35" height="34" fill="white" transform="translate(90)"/>
</clipPath>
</defs>
</svg>
