<svg width="146" height="45" viewBox="0 0 146 45" fill="none" xmlns="http://www.w3.org/2000/svg">
<g clip-path="url(#clip0_124_22)">
<path d="M21.9434 0.837891C9.94683 0.837891 0.221191 10.6575 0.221191 22.7703C0.221191 34.8837 9.94683 44.7025 21.9434 44.7025C33.9413 44.7025 43.6659 34.8837 43.6659 22.7703C43.6659 10.6583 33.9413 0.838938 21.9432 0.838938L21.9434 0.837891ZM31.9051 32.4707C31.516 33.115 30.6808 33.3193 30.0427 32.9238C24.9425 29.7784 18.5221 29.066 10.9608 30.8103C10.2322 30.9779 9.50586 30.5169 9.33985 29.781C9.17306 29.045 9.62777 28.3117 10.3582 28.1441C18.6328 26.2353 25.7306 27.0572 31.4564 30.5903C32.0945 30.9857 32.2968 31.8265 31.9051 32.4707ZM34.5639 26.4988C34.0736 27.3034 33.0309 27.5574 32.2345 27.0624C26.3956 23.4387 17.4951 22.3892 10.5888 24.506C9.69314 24.7791 8.74714 24.2695 8.4753 23.3667C8.20553 22.4623 8.71057 21.509 9.60469 21.234C17.4936 18.8171 27.3009 19.9878 34.0062 24.1482C34.8025 24.6432 35.0541 25.6958 34.5639 26.4988ZM34.7921 20.2801C27.7912 16.0815 16.2404 15.6955 9.55618 17.7438C8.48282 18.0725 7.34772 17.4607 7.02244 16.377C6.69717 15.2927 7.30259 14.1474 8.37673 13.8179C16.0498 11.466 28.8054 11.9204 36.8657 16.7517C37.8333 17.3303 38.1497 18.5893 37.5765 19.5628C37.0058 20.5376 35.7555 20.8589 34.7932 20.2801H34.7921ZM59.3202 21.0847C55.5694 20.1817 54.9028 19.5478 54.9028 18.2161C54.9028 16.9579 56.0752 16.1111 57.8209 16.1111C59.5122 16.1111 61.1879 16.7541 62.9465 18.0778C62.9984 18.1178 63.0658 18.1338 63.1307 18.1233C63.1981 18.1134 63.2552 18.077 63.2941 18.0222L65.1254 15.4158C65.2006 15.3084 65.1799 15.1604 65.0787 15.0784C62.9854 13.3831 60.6302 12.5589 57.8754 12.5589C53.8263 12.5589 50.9963 15.0127 50.9963 18.5235C50.9963 22.2884 53.4372 23.6215 57.6549 24.6505C61.2423 25.4852 61.8493 26.1845 61.8493 27.4343C61.8493 28.8198 60.625 29.6815 58.6536 29.6815C56.4643 29.6815 54.6771 28.935 52.6798 27.1908C52.6305 27.1462 52.5631 27.1279 52.5008 27.1305C52.4334 27.1357 52.3737 27.1672 52.3322 27.2169L50.2778 29.6841C50.1922 29.7888 50.2026 29.9407 50.3012 30.0298C52.6253 32.125 55.4838 33.2303 58.5706 33.2303C62.9336 33.2303 65.7531 30.8234 65.7531 27.0965C65.7609 23.9518 63.8959 22.2101 59.328 21.0881L59.3202 21.0847ZM75.6256 17.3499C73.7346 17.3499 72.1835 18.1021 70.9021 19.6434V17.9086C70.9021 17.7716 70.7931 17.66 70.6582 17.66H67.2991C67.1642 17.66 67.0553 17.7716 67.0553 17.9086V37.185C67.0553 37.3212 67.1642 37.4338 67.2991 37.4338H70.6582C70.7931 37.4338 70.9021 37.3212 70.9021 37.185V31.101C72.1835 32.5493 73.7346 33.2591 75.6256 33.2591C79.1404 33.2591 82.6992 30.5274 82.6992 25.3053C82.7044 20.0821 79.1455 17.3497 75.6282 17.3497L75.6256 17.3499ZM78.7928 25.3053C78.7928 27.9634 77.1716 29.8203 74.8474 29.8203C72.5518 29.8203 70.8191 27.8796 70.8191 25.3053C70.8191 22.7308 72.5518 20.7906 74.8474 20.7906C77.1327 20.7903 78.7928 22.6889 78.7928 25.3053ZM91.8168 17.3499C87.2904 17.3499 83.7446 20.8689 83.7446 25.3621C83.7446 29.8072 87.2671 33.2879 91.7624 33.2879C96.3043 33.2879 99.8606 29.781 99.8606 25.3053C99.8606 20.8448 96.3277 17.3505 91.8168 17.3505V17.3499ZM91.8168 29.8465C89.4097 29.8465 87.5939 27.8927 87.5939 25.304C87.5939 22.7035 89.3474 20.8165 91.7624 20.8165C94.1851 20.8165 96.0112 22.7695 96.0112 25.3608C96.0112 27.9608 94.2473 29.8465 91.8168 29.8465ZM109.526 17.66H105.829V13.8451C105.829 13.7084 105.72 13.5968 105.585 13.5968H102.226C102.091 13.5968 101.98 13.7084 101.98 13.8451V17.66H100.366C100.231 17.66 100.123 17.7716 100.123 17.9086V20.8228C100.123 20.9595 100.231 21.0713 100.366 21.0713H101.98V28.6129C101.98 31.6588 103.482 33.2041 106.447 33.2041C107.65 33.2041 108.649 32.9527 109.59 32.4131C109.668 32.3712 109.715 32.2874 109.715 32.1984V29.4222C109.715 29.3384 109.671 29.2572 109.598 29.2127C109.526 29.1655 109.435 29.1629 109.359 29.2022C108.714 29.5296 108.088 29.6815 107.388 29.6815C106.312 29.6815 105.829 29.1865 105.829 28.0812V21.0727H109.526C109.66 21.0727 109.769 20.9611 109.769 20.8241V17.9102C109.775 17.7732 109.666 17.6616 109.528 17.6616L109.526 17.66ZM122.402 17.675V17.2064C122.402 15.828 122.926 15.2133 124.098 15.2133C124.798 15.2133 125.361 15.3537 125.992 15.5658C126.07 15.5905 126.15 15.5782 126.212 15.5313C126.277 15.4844 126.313 15.4092 126.313 15.3296V12.4722C126.313 12.363 126.246 12.2664 126.14 12.2342C125.476 12.0343 124.625 11.8292 123.348 11.8292C120.249 11.8292 118.607 13.5929 118.607 16.9277V17.6454H116.993C116.859 17.6454 116.747 17.7569 116.747 17.8937V20.8228C116.747 20.9595 116.859 21.0713 116.993 21.0713H118.607V32.7012C118.607 32.84 118.718 32.95 118.853 32.95H122.21C122.347 32.95 122.456 32.84 122.456 32.7012V21.0721H125.592L130.396 32.7012C129.851 33.9217 129.314 34.1653 128.583 34.1653C127.992 34.1653 127.366 33.9872 126.731 33.6336C126.671 33.6022 126.599 33.5969 126.536 33.6153C126.472 33.6388 126.417 33.686 126.391 33.7488L125.252 36.271C125.198 36.3915 125.245 36.5303 125.359 36.5931C126.547 37.2427 127.618 37.5203 128.944 37.5203C131.423 37.5203 132.796 36.3522 134.002 33.2146L139.828 18.0144C139.859 17.9379 139.848 17.8515 139.802 17.7837C139.758 17.7163 139.682 17.6757 139.602 17.6757H136.105C135.999 17.6757 135.906 17.7431 135.872 17.8423L132.29 28.1703L128.368 17.8355C128.331 17.7394 128.241 17.6757 128.139 17.6757H122.402V17.675ZM114.936 17.66H111.577C111.442 17.66 111.331 17.7716 111.331 17.9086V32.7012C111.331 32.84 111.442 32.95 111.577 32.95H114.936C115.071 32.95 115.183 32.84 115.183 32.7012V17.9096C115.183 17.7727 115.074 17.6611 114.936 17.6611V17.66ZM113.276 10.9241C111.946 10.9241 110.867 12.0115 110.867 13.3548C110.867 14.6989 111.946 15.7877 113.276 15.7877C114.607 15.7877 115.683 14.6989 115.683 13.3548C115.683 12.0118 114.604 10.9241 113.276 10.9241ZM142.697 22.4165C141.368 22.4165 140.333 21.3387 140.333 20.03C140.333 18.7213 141.381 17.6312 142.71 17.6312C144.038 17.6312 145.073 18.7087 145.073 20.0164C145.073 21.3251 144.025 22.4165 142.697 22.4165ZM142.71 17.8685C141.498 17.8685 140.582 18.8402 140.582 20.03C140.582 21.2193 141.493 22.1779 142.697 22.1779C143.908 22.1779 144.824 21.207 144.824 20.0164C144.824 18.8271 143.913 17.8685 142.71 17.8685ZM143.233 20.2618L143.903 21.2067H143.337L142.735 20.3398H142.219V21.2067H141.747V18.7019H142.852C143.431 18.7019 143.809 18.9997 143.809 19.501C143.812 19.9116 143.576 20.1625 143.236 20.2618H143.233ZM142.834 19.1317H142.219V19.9239H142.834C143.14 19.9239 143.324 19.7723 143.324 19.5274C143.324 19.2697 143.14 19.1317 142.834 19.1317Z" fill="#F5FFF5"/>
</g>
<defs>
<clipPath id="clip0_124_22">
<rect width="145" height="44" fill="white" transform="translate(0.155518 0.765381)"/>
</clipPath>
</defs>
</svg>
