<svg width="215" height="34" viewBox="0 0 215 34" fill="none" xmlns="http://www.w3.org/2000/svg">
<g clip-path="url(#clip0_128_1475)">
<path d="M74.2827 3.04712C66.4185 3.04712 60.043 9.39436 60.043 17.2239C60.043 25.0538 66.4185 31.4005 74.2827 31.4005C82.1477 31.4005 88.5225 25.0538 88.5225 17.2239C88.5225 9.39487 82.1477 3.0478 74.2825 3.0478L74.2827 3.04712ZM80.8129 23.4941C80.5578 23.9106 80.0103 24.0426 79.592 23.787C76.2487 21.7538 72.0398 21.2933 67.0832 22.4208C66.6055 22.5292 66.1294 22.2312 66.0206 21.7555C65.9112 21.2798 66.2093 20.8058 66.6882 20.6974C72.1124 19.4636 76.7653 19.9949 80.5187 22.2786C80.937 22.5342 81.0697 23.0777 80.8129 23.4941ZM82.5558 19.6339C82.2344 20.154 81.5509 20.3182 81.0289 19.9983C77.2012 17.6559 71.3666 16.9776 66.8393 18.3458C66.2522 18.5224 65.632 18.1929 65.4538 17.6094C65.277 17.0248 65.6081 16.4086 66.1942 16.2309C71.3656 14.6686 77.7947 15.4254 82.1902 18.1146C82.7123 18.4345 82.8772 19.1149 82.5558 19.6339ZM82.7055 15.6143C78.1161 12.9004 70.5442 12.6508 66.1624 13.9749C65.4588 14.1873 64.7147 13.7919 64.5014 13.0913C64.2882 12.3905 64.6851 11.6502 65.3892 11.4372C70.4192 9.91696 78.7809 10.2107 84.0648 13.3336C84.699 13.7076 84.9065 14.5213 84.5307 15.1506C84.1566 15.7807 83.337 15.9884 82.7061 15.6143H82.7055ZM98.7845 16.1344C96.3257 15.5506 95.8887 15.141 95.8887 14.2801C95.8887 13.4668 96.6573 12.9195 97.8016 12.9195C98.9103 12.9195 100.009 13.3351 101.162 14.1907C101.196 14.2166 101.24 14.2269 101.282 14.2202C101.327 14.2137 101.364 14.1902 101.389 14.1548L102.59 12.47C102.639 12.4006 102.626 12.305 102.559 12.252C101.187 11.1562 99.6432 10.6234 97.8374 10.6234C95.183 10.6234 93.3279 12.2095 93.3279 14.4789C93.3279 16.9124 94.928 17.7741 97.6928 18.4393C100.044 18.9788 100.442 19.4308 100.442 20.2387C100.442 21.1342 99.6398 21.6912 98.3475 21.6912C96.9123 21.6912 95.7408 21.2087 94.4314 20.0812C94.3991 20.0524 94.3549 20.0406 94.3141 20.0423C94.2699 20.0457 94.2308 20.066 94.2036 20.0981L92.8569 21.6929C92.8008 21.7606 92.8076 21.8588 92.8722 21.9163C94.3957 23.2707 96.2696 23.9851 98.2931 23.9851C101.153 23.9851 103.001 22.4293 103.001 20.0203C103.007 17.9876 101.784 16.8618 98.7896 16.1366L98.7845 16.1344ZM109.473 13.7203C108.234 13.7203 107.217 14.2065 106.377 15.2027V14.0814C106.377 13.9928 106.305 13.9207 106.217 13.9207H104.015C103.927 13.9207 103.855 13.9928 103.855 14.0814V26.5414C103.855 26.6294 103.927 26.7022 104.015 26.7022H106.217C106.305 26.7022 106.377 26.6294 106.377 26.5414V22.6087C107.217 23.5449 108.234 24.0037 109.473 24.0037C111.777 24.0037 114.11 22.238 114.11 18.8625C114.114 15.4863 111.781 13.7201 109.475 13.7201L109.473 13.7203ZM111.549 18.8625C111.549 20.5806 110.487 21.7809 108.963 21.7809C107.458 21.7809 106.322 20.5264 106.322 18.8625C106.322 17.1984 107.458 15.9442 108.963 15.9442C110.461 15.9441 111.549 17.1713 111.549 18.8625ZM120.087 13.7203C117.12 13.7203 114.795 15.9949 114.795 18.8992C114.795 21.7724 117.105 24.0223 120.051 24.0223C123.029 24.0223 125.36 21.7555 125.36 18.8625C125.36 15.9793 123.044 13.7206 120.087 13.7206V13.7203ZM120.087 21.7978C118.509 21.7978 117.319 20.5349 117.319 18.8616C117.319 17.1807 118.468 15.961 120.051 15.961C121.64 15.961 122.837 17.2234 122.837 18.8984C122.837 20.5789 121.68 21.7978 120.087 21.7978ZM131.696 13.9207H129.273V11.4548C129.273 11.3664 129.201 11.2943 129.113 11.2943H126.911C126.822 11.2943 126.749 11.3664 126.749 11.4548V13.9207H125.692C125.603 13.9207 125.532 13.9928 125.532 14.0814V15.9651C125.532 16.0534 125.603 16.1257 125.692 16.1257H126.749V21.0005C126.749 22.9693 127.734 23.9681 129.677 23.9681C130.466 23.9681 131.121 23.8056 131.738 23.4569C131.789 23.4298 131.82 23.3756 131.82 23.3181V21.5236C131.82 21.4694 131.791 21.4169 131.743 21.3881C131.696 21.3577 131.636 21.356 131.587 21.3814C131.164 21.593 130.754 21.6912 130.295 21.6912C129.589 21.6912 129.273 21.3712 129.273 20.6568V16.1266H131.696C131.784 16.1266 131.856 16.0544 131.856 15.9659V14.0824C131.859 13.9938 131.788 13.9217 131.698 13.9217L131.696 13.9207ZM140.137 13.9304V13.6275C140.137 12.7365 140.48 12.3392 141.249 12.3392C141.708 12.3392 142.077 12.4299 142.49 12.567C142.541 12.583 142.594 12.575 142.635 12.5447C142.677 12.5144 142.701 12.4658 142.701 12.4143V10.5674C142.701 10.4968 142.657 10.4343 142.587 10.4135C142.152 10.2843 141.594 10.1518 140.757 10.1518C138.725 10.1518 137.649 11.2918 137.649 13.4474V13.9112H136.591C136.503 13.9112 136.43 13.9833 136.43 14.0717V15.9651C136.43 16.0534 136.503 16.1257 136.591 16.1257H137.649V23.6431C137.649 23.7328 137.722 23.8039 137.81 23.8039H140.011C140.101 23.8039 140.172 23.7328 140.172 23.6431V16.1262H142.228L145.377 23.6431C145.02 24.432 144.668 24.5894 144.189 24.5894C143.801 24.5894 143.391 24.4743 142.975 24.2458C142.935 24.2255 142.888 24.2221 142.847 24.2339C142.805 24.2492 142.769 24.2796 142.752 24.3203L142.005 25.9505C141.97 26.0284 142 26.1181 142.075 26.1588C142.854 26.5786 143.556 26.7581 144.425 26.7581C146.051 26.7581 146.95 26.003 147.741 23.9749L151.56 14.1498C151.58 14.1003 151.574 14.0445 151.543 14.0006C151.514 13.9571 151.465 13.9309 151.412 13.9309H149.12C149.05 13.9309 148.989 13.9744 148.967 14.0385L146.619 20.7144L144.048 14.0341C144.024 13.972 143.964 13.9309 143.898 13.9309H140.137V13.9304ZM135.243 13.9207H133.041C132.952 13.9207 132.879 13.9928 132.879 14.0814V23.6431C132.879 23.7328 132.952 23.8039 133.041 23.8039H135.243C135.331 23.8039 135.404 23.7328 135.404 23.6431V14.082C135.404 13.9935 135.333 13.9214 135.243 13.9214V13.9207ZM134.155 9.5667C133.282 9.5667 132.575 10.2696 132.575 11.1379C132.575 12.0067 133.282 12.7104 134.155 12.7104C135.027 12.7104 135.733 12.0067 135.733 11.1379C135.733 10.2698 135.025 9.5667 134.155 9.5667ZM153.441 16.9952C152.57 16.9952 151.892 16.2986 151.892 15.4526C151.892 14.6067 152.578 13.9021 153.449 13.9021C154.32 13.9021 154.998 14.5985 154.998 15.4438C154.998 16.2898 154.311 16.9952 153.441 16.9952ZM153.449 14.0555C152.655 14.0555 152.055 14.6835 152.055 15.4526C152.055 16.2214 152.652 16.841 153.441 16.841C154.235 16.841 154.835 16.2134 154.835 15.4438C154.835 14.6751 154.238 14.0555 153.449 14.0555ZM153.793 15.6024L154.231 16.2132H153.861L153.466 15.6529H153.128V16.2132H152.818V14.5941H153.543C153.922 14.5941 154.17 14.7866 154.17 15.1107C154.172 15.3761 154.017 15.5383 153.794 15.6024H153.793ZM153.531 14.8719H153.128V15.3841H153.531C153.731 15.3841 153.852 15.286 153.852 15.1277C153.852 14.9612 153.731 14.8719 153.531 14.8719Z" fill="#F5FFF5"/>
</g>
<defs>
<clipPath id="clip0_128_1475">
<rect width="95.0526" height="28.4409" fill="white" transform="translate(60 3)"/>
</clipPath>
</defs>
</svg>
