<svg width="128" height="39" viewBox="0 0 128 39" fill="none" xmlns="http://www.w3.org/2000/svg">
<g clip-path="url(#clip0_21_153)">
<path d="M19.245 0.828003C8.73765 0.828003 0.21933 9.30856 0.21933 19.7696C0.21933 30.2312 8.73765 38.7111 19.245 38.7111C29.7535 38.7111 38.2709 30.2312 38.2709 19.7696C38.2709 9.30924 29.7535 0.828908 19.2448 0.828908L19.245 0.828003ZM27.9701 28.1473C27.6293 28.7037 26.8977 28.8801 26.3388 28.5386C21.8718 25.8221 16.2484 25.2068 9.62574 26.7132C8.98755 26.858 8.35142 26.4599 8.20602 25.8243C8.05993 25.1887 8.4582 24.5554 9.09797 24.4106C16.3454 22.7621 22.562 23.4719 27.577 26.5232C28.1359 26.8648 28.3131 27.5909 27.9701 28.1473ZM30.2988 22.9897C29.8694 23.6845 28.9561 23.904 28.2586 23.4765C23.1445 20.3469 15.3489 19.4405 9.29994 21.2686C8.51545 21.5045 7.68688 21.0644 7.44879 20.2847C7.21251 19.5036 7.65485 18.6803 8.43798 18.4428C15.3476 16.3555 23.9374 17.3666 29.8103 20.9596C30.5078 21.3871 30.7282 22.2962 30.2988 22.9897ZM30.4987 17.619C24.3668 13.993 14.25 13.6596 8.39549 15.4286C7.45538 15.7125 6.46119 15.1841 6.17629 14.2481C5.89139 13.3117 6.42166 12.3226 7.36245 12.038C14.083 10.0068 25.2551 10.3993 32.3149 14.5718C33.1623 15.0714 33.4395 16.1587 32.9374 16.9995C32.4376 17.8414 31.3425 18.1189 30.4996 17.619H30.4987ZM51.9819 18.3139C48.6967 17.534 48.1129 16.9866 48.1129 15.8364C48.1129 14.7498 49.1398 14.0185 50.6688 14.0185C52.1501 14.0185 53.6177 14.5738 55.1581 15.717C55.2035 15.7516 55.2626 15.7654 55.3194 15.7563C55.3784 15.7478 55.4284 15.7163 55.4625 15.669L57.0665 13.418C57.1324 13.3253 57.1142 13.1975 57.0256 13.1267C55.1921 11.6625 53.1293 10.9507 50.7165 10.9507C47.17 10.9507 44.6914 13.0699 44.6914 16.102C44.6914 19.3535 46.8292 20.5048 50.5234 21.3935C53.6654 22.1143 54.1971 22.7183 54.1971 23.7976C54.1971 24.9942 53.1247 25.7384 51.3981 25.7384C49.4806 25.7384 47.9152 25.0937 46.1658 23.5873C46.1227 23.5488 46.0636 23.533 46.0091 23.5353C45.95 23.5398 45.8977 23.5669 45.8614 23.6099L44.062 25.7406C43.9871 25.8311 43.9962 25.9623 44.0825 26.0392C46.1181 27.8487 48.6218 28.8032 51.3254 28.8032C55.1467 28.8032 57.6163 26.7246 57.6163 23.5059C57.6231 20.79 55.9896 19.2858 51.9888 18.3168L51.9819 18.3139ZM66.2632 15.0884C64.607 15.0884 63.2484 15.738 62.126 17.0692V15.5709C62.126 15.4526 62.0306 15.3562 61.9125 15.3562H58.9703C58.8522 15.3562 58.7568 15.4526 58.7568 15.5709V32.2187C58.7568 32.3363 58.8522 32.4336 58.9703 32.4336H61.9125C62.0306 32.4336 62.126 32.3363 62.126 32.2187V26.9643C63.2484 28.2151 64.607 28.8281 66.2632 28.8281C69.3416 28.8281 72.4587 26.469 72.4587 21.9589C72.4632 17.448 69.3462 15.0882 66.2655 15.0882L66.2632 15.0884ZM69.0372 21.9589C69.0372 24.2546 67.6173 25.8582 65.5816 25.8582C63.571 25.8582 62.0533 24.1822 62.0533 21.9589C62.0533 19.7355 63.571 18.0599 65.5816 18.0599C67.5832 18.0596 69.0372 19.6993 69.0372 21.9589ZM80.4445 15.0884C76.48 15.0884 73.3743 18.1275 73.3743 22.008C73.3743 25.8469 76.4595 28.853 80.3968 28.853C84.3749 28.853 87.4897 25.8243 87.4897 21.9589C87.4897 18.1067 84.3953 15.0889 80.4445 15.0889V15.0884ZM80.4445 25.8809C78.3361 25.8809 76.7458 24.1935 76.7458 21.9578C76.7458 19.712 78.2816 18.0823 80.3968 18.0823C82.5187 18.0823 84.1182 19.769 84.1182 22.0069C84.1182 24.2523 82.5733 25.8809 80.4445 25.8809ZM95.9548 15.3562H92.7174V12.0615C92.7174 11.9435 92.6219 11.8471 92.5038 11.8471H89.5617C89.4435 11.8471 89.3458 11.9435 89.3458 12.0615V15.3562H87.9327C87.8146 15.3562 87.7192 15.4526 87.7192 15.5709V18.0877C87.7192 18.2058 87.8146 18.3023 87.9327 18.3023H89.3458V24.8155C89.3458 27.4461 90.6613 28.7806 93.2581 28.7806C94.3122 28.7806 95.1869 28.5635 96.0116 28.0975C96.0798 28.0613 96.1207 27.989 96.1207 27.9121V25.5144C96.1207 25.4421 96.0821 25.3719 96.0185 25.3335C95.9548 25.2928 95.8753 25.2905 95.8094 25.3244C95.2437 25.6072 94.6962 25.7384 94.0828 25.7384C93.1399 25.7384 92.7174 25.3109 92.7174 24.3563V18.3035H95.9548C96.073 18.3035 96.1684 18.2071 96.1684 18.0888V15.5722C96.1729 15.4539 96.0775 15.3576 95.9571 15.3576L95.9548 15.3562ZM107.233 15.3691V14.9645C107.233 13.774 107.692 13.2431 108.718 13.2431C109.332 13.2431 109.825 13.3644 110.377 13.5476C110.445 13.5689 110.516 13.5582 110.57 13.5177C110.627 13.4773 110.659 13.4123 110.659 13.3436V10.8758C110.659 10.7815 110.6 10.6981 110.506 10.6702C109.925 10.4976 109.18 10.3205 108.062 10.3205C105.347 10.3205 103.909 11.8437 103.909 14.7238V15.3435H102.496C102.378 15.3435 102.28 15.4399 102.28 15.558V18.0877C102.28 18.2058 102.378 18.3023 102.496 18.3023H103.909V28.3463C103.909 28.4662 104.007 28.5612 104.125 28.5612H107.064C107.185 28.5612 107.28 28.4662 107.28 28.3463V18.303H110.027L114.235 28.3463C113.758 29.4004 113.287 29.6107 112.647 29.6107C112.129 29.6107 111.581 29.4569 111.024 29.1516C110.972 29.1244 110.909 29.1199 110.854 29.1357C110.797 29.1561 110.75 29.1968 110.727 29.2511L109.729 31.4293C109.682 31.5334 109.723 31.6532 109.823 31.7075C110.863 32.2685 111.801 32.5082 112.962 32.5082C115.134 32.5082 116.336 31.4994 117.393 28.7897L122.495 15.6623C122.523 15.5962 122.514 15.5216 122.473 15.463C122.434 15.4048 122.368 15.3698 122.298 15.3698H119.235C119.142 15.3698 119.06 15.4279 119.031 15.5136L115.893 24.4332L112.458 15.5078C112.426 15.4248 112.347 15.3698 112.258 15.3698H107.233V15.3691ZM100.694 15.3562H97.7519C97.6338 15.3562 97.5361 15.4526 97.5361 15.5709V28.3463C97.5361 28.4662 97.6338 28.5612 97.7519 28.5612H100.694C100.812 28.5612 100.91 28.4662 100.91 28.3463V15.5718C100.91 15.4535 100.814 15.3571 100.694 15.3571V15.3562ZM99.24 9.53882C98.0745 9.53882 97.1294 10.478 97.1294 11.6381C97.1294 12.7989 98.0745 13.7392 99.24 13.7392C100.406 13.7392 101.348 12.7989 101.348 11.6381C101.348 10.4782 100.403 9.53882 99.24 9.53882ZM125.008 19.4641C123.845 19.4641 122.938 18.5333 122.938 17.403C122.938 16.2727 123.856 15.3313 125.019 15.3313C126.183 15.3313 127.089 16.2619 127.089 17.3913C127.089 18.5215 126.171 19.4641 125.008 19.4641ZM125.019 15.5363C123.958 15.5363 123.156 16.3754 123.156 17.403C123.156 18.4301 123.954 19.258 125.008 19.258C126.069 19.258 126.871 18.4195 126.871 17.3913C126.871 16.3641 126.074 15.5363 125.019 15.5363ZM125.478 17.6032L126.065 18.4193H125.569L125.042 17.6706H124.59V18.4193H124.177V16.256H125.144C125.651 16.256 125.983 16.5132 125.983 16.9461C125.985 17.3008 125.778 17.5175 125.481 17.6032H125.478ZM125.128 16.6272H124.59V17.3114H125.128C125.397 17.3114 125.558 17.1804 125.558 16.969C125.558 16.7464 125.397 16.6272 125.128 16.6272Z" fill="#F5FFF5"/>
</g>
<defs>
<clipPath id="clip0_21_153">
<rect width="127" height="38" fill="white" transform="translate(0.161865 0.765381)"/>
</clipPath>
</defs>
</svg>
