<svg width="191" height="39" viewBox="0 0 191 39" fill="none" xmlns="http://www.w3.org/2000/svg">
<g clip-path="url(#clip0_119_932)">
<path d="M15.9786 37.5322C17.7118 37.5141 19.2798 36.3896 21.4564 33.7107C23.6602 30.9978 26.8663 26.2214 28.9389 18.7435C29.7693 15.7433 29.6946 11.9353 27.5723 8.10016C25.2123 3.83739 20.3138 0.497774 14.5848 0.565653C9.27223 0.629006 4.28091 3.61566 1.96173 8.10016C0.00456461 11.89 0.558905 15.5623 0.943549 18.0398C1.81918 23.6602 4.66555 26.9839 9.98948 33.2016C12.863 36.5571 14.3246 37.5503 15.9786 37.5345V37.5322Z" stroke="white" stroke-width="1.13131" stroke-miterlimit="10"/>
<path d="M12.3797 27.2398C14.1188 26.2357 13.8926 22.5881 11.8745 19.0926C9.85639 15.5972 6.81058 13.5775 5.07149 14.5815C3.33241 15.5856 3.55861 19.2332 5.57673 22.7287C7.59484 26.2241 10.6407 28.2438 12.3797 27.2398Z" fill="white"/>
<path d="M24.6153 22.4746C26.6335 18.9791 26.8597 15.3315 25.1206 14.3275C23.3815 13.3234 20.3357 15.3431 18.3176 18.8386C16.2995 22.334 16.0733 25.9816 17.8123 26.9857C19.5514 27.9898 22.5972 25.9701 24.6153 22.4746Z" fill="white"/>
</g>
<path d="M44.9965 25.9568C39.5643 25.9568 38.4126 21.0747 38.4126 17.1208C38.4126 13.1842 40.1488 8.3021 44.9965 8.3021C49.8615 8.3021 52.3885 12.4106 52.3885 17.4818C52.3885 22.5359 50.4459 25.9568 44.9965 25.9568ZM45.3919 23.2407C46.75 23.2407 47.2141 21.0059 47.2141 18.0663C47.1625 14.1125 46.6984 11.0182 45.0309 11.0182C43.6901 11.0182 43.2087 13.253 43.2087 16.1754C43.2775 20.1464 43.7416 23.2407 45.3919 23.2407ZM56.0237 25.9568C54.6657 25.9568 53.3248 24.9597 53.3248 24.3237C53.3248 24.2377 53.342 24.169 53.3936 24.1002C53.6171 23.7392 53.9265 23.2063 54.0812 21.9858V18.5992C54.064 17.6709 53.7202 17.2412 53.4623 17.0005C53.2217 16.7598 53.1185 16.4504 53.1185 16.141C53.1185 14.8689 54.7344 13.253 56.2644 13.253C57.8459 13.253 58.1038 13.4249 58.1038 13.8546C58.1038 14.0437 58.0522 14.3188 58.0522 14.6282C58.0522 15.0924 58.0694 15.5909 58.1038 15.6596C58.8086 14.2672 60.0635 13.2358 61.1465 13.2358C62.6765 13.3217 63.9829 14.6454 64.2236 17.0865C64.2924 17.7397 64.2924 18.6508 64.2924 19.5619V21.0919C64.2924 21.6591 64.3096 21.4013 64.3096 21.9858C64.4643 23.2063 64.7909 23.7392 64.9972 24.1002C65.0316 24.169 65.0487 24.2377 65.0487 24.3237C65.0487 24.9769 63.6735 25.9396 62.2639 25.9396C60.8715 25.9396 59.4618 25.0113 59.4618 24.3409C59.4618 24.2549 59.479 24.169 59.5306 24.1002C59.7369 23.7564 60.0979 23.2579 60.1666 22.1405C60.1666 21.0747 59.6853 17.86 59.4618 17.2756C59.4103 17.1724 59.3415 17.1208 59.2555 17.1208C58.9117 17.1208 58.2929 18.0147 58.1897 18.3586V21.9858C58.3444 23.2063 58.6539 23.7392 58.8774 24.1002C58.9117 24.169 58.9289 24.2377 58.9289 24.3237C58.9289 24.9941 57.4677 25.9568 56.0237 25.9568ZM68.7389 25.9568C67.209 25.8708 65.8853 24.5471 65.6618 22.1233C65.5931 21.3669 65.5759 20.3011 65.5759 19.304C65.5759 17.8772 65.5759 18.5992 65.5759 17.2068C65.4212 15.9863 65.1117 15.4534 64.8883 15.0924C64.8367 15.0236 64.8195 14.9548 64.8195 14.8689C64.8195 14.2156 66.1947 13.253 67.6216 13.253C69.8047 13.253 69.9767 14.2328 69.9767 15.0752C69.9767 15.8487 69.8219 16.6395 69.8219 17.4475C69.8391 18.9602 69.8563 20.473 70.4236 21.917C70.458 22.0201 70.5267 22.0717 70.6127 22.0717C70.9565 22.0717 71.5754 21.1778 71.7129 20.834V17.2068C71.5582 15.9863 71.2488 15.4534 71.0253 15.0924C70.9737 15.0236 70.9565 14.9376 70.9565 14.8689C70.9565 14.1985 72.3833 13.253 73.8273 13.253C75.3745 13.2702 76.0965 13.7515 76.1137 14.8345C76.1137 16.5364 75.8042 18.3414 75.8042 20.0776V20.6105C75.8214 21.5216 76.1824 21.9514 76.4231 22.192C76.6466 22.4327 76.7669 22.7421 76.7669 23.0516C76.7669 24.3237 75.151 25.9396 73.6382 25.9396C72.0223 25.9396 71.7817 25.7677 71.7817 25.3379C71.7817 25.1488 71.8332 24.9081 71.8332 24.6159C71.816 24.1346 71.8332 23.6017 71.7988 23.5329C71.0597 24.9253 69.8391 25.9568 68.7389 25.9568ZM79.779 12.8232C78.5069 12.8232 77.4755 11.9637 77.4755 10.9151C77.4755 9.86644 78.5069 8.80063 79.779 8.80063C81.0511 8.80063 82.0997 9.86644 82.0997 10.9151C82.0997 11.9637 81.0511 12.8232 79.779 12.8232ZM80.0025 25.9568C78.5757 25.9568 77.166 25.4754 77.166 24.53C77.166 24.4096 77.1832 24.2893 77.2348 24.169C77.699 22.7421 77.9224 22.6906 77.9224 21.0403C77.9052 20.0088 77.9052 20.4902 77.9052 19.4072C77.8709 18.1695 77.7161 17.0177 77.2176 16.502C76.9426 16.2269 76.8394 15.9519 76.8394 15.694C76.8394 14.3532 79.7962 13.253 81.4121 13.253C82.0138 13.253 82.4435 13.4077 82.4435 13.7687V13.8375C82.2716 15.058 82.1857 16.3129 82.1685 17.5506C82.1685 18.7024 82.2373 19.8369 82.2373 20.9887V21.2809C82.2373 22.7421 82.4607 22.8281 82.9077 24.169C82.9421 24.2893 82.9593 24.3924 82.9593 24.4956C82.9593 25.4582 81.3949 25.9396 80.0025 25.9568ZM86.9695 25.9568C85.5942 25.9568 84.2362 25.4754 84.2362 24.5128C84.2362 24.4096 84.2706 24.2893 84.305 24.1518C84.4425 23.7392 84.8379 23.2407 84.9926 22.0373V19.751C84.9926 19.3212 85.0441 18.3757 85.0441 17.4818C85.0441 16.6223 84.9926 15.8316 84.7863 15.6253C84.7691 15.5909 84.7175 15.5565 84.6488 15.5049C84.5456 15.5049 84.2018 15.4534 84.0987 15.4534C83.3251 15.3846 83.1188 15.1439 83.0844 14.1985C83.0844 13.6484 83.2735 13.2874 83.6001 13.2358C85.216 12.9607 84.8379 10.8635 87.6055 10.8635C88.7917 10.8635 89.1011 11.087 89.1011 13.253L89.8575 13.2358C90.3732 13.2358 90.717 13.3045 90.717 13.7515C90.717 15.3846 90.4248 15.4534 89.3933 15.4534H89.0839V22.0373C89.2386 23.2407 89.6512 23.7392 89.7715 24.1518C89.8059 24.2721 89.8231 24.3752 89.8231 24.4784C89.8231 25.4582 88.3791 25.9568 86.9695 25.9568Z" fill="white"/>
<path d="M98.7473 33.0908C98.0081 33.0908 97.2689 32.6095 97.2689 31.5781C97.2689 31.4749 97.2861 31.3718 97.2861 31.2515C97.3892 30.4951 98.5238 30.1513 98.5238 29.1542C98.5238 29.0683 98.5066 28.9823 98.4894 28.8963C97.0282 31.0452 94.6559 32.5407 93.126 32.5751C91.4585 32.5751 90.152 30.7701 90.152 29.0511C90.152 28.5525 90.2723 28.054 90.513 27.6071C91.1491 26.4553 92.5759 25.7505 93.9855 25.1832L94.484 24.9253C93.6589 24.8566 93.2291 24.6503 92.6103 24.3065C90.9772 23.361 90.152 21.5388 90.152 19.6994C90.152 17.0005 91.9398 14.2844 95.4983 14.2844C95.5326 13.3389 95.928 12.3419 96.3922 11.8262C97.0626 11.1042 97.9909 10.7947 98.7645 10.7947C100.174 10.7947 100.948 11.8777 100.948 12.7544C100.948 13.5452 100.346 14.2844 98.8504 14.3532C98.455 14.3704 98.1112 14.5079 97.7846 14.6626C99.538 15.2815 100.999 17.5162 100.999 19.4244C100.999 24.2377 98.0768 26.0255 96.2546 26.8163C95.7217 27.0742 94.484 27.1945 94.484 27.9337C94.5184 28.3634 94.6903 28.5525 94.9997 28.5525C95.9452 28.5525 97.8877 26.7303 98.5066 26.2318C98.7473 26.0771 98.9879 25.9912 99.1942 25.9912C100.277 25.9912 100.999 27.8305 100.999 29.6355C100.948 31.4749 100.26 33.0908 98.7473 33.0908ZM95.7389 22.364C96.4094 22.364 96.7188 21.1606 96.7188 19.8541C96.7188 18.3242 96.289 16.6739 95.5155 16.6739C94.7591 16.6739 94.3981 17.9116 94.3981 19.2353C94.3981 20.748 94.8622 22.364 95.7389 22.364ZM107.427 25.9568C102.304 25.8708 101.702 22.4327 101.685 19.5791C101.685 16.7083 103.163 13.253 107.461 13.253C109.352 13.2874 110.813 13.9234 111.552 15.2299C111.931 15.8831 112.085 16.4676 112.085 16.9833C112.085 19.3212 108.63 20.1464 106.825 20.1464C106.378 20.1464 106.051 20.0948 105.88 20.0088C106.034 20.9028 106.241 23.808 107.427 23.808C108.063 23.808 108.028 22.8109 108.132 21.8139C108.235 20.748 109.129 20.2151 110.057 20.2151C111.174 20.2151 112.068 20.8856 112.103 22.1577C112.103 24.2205 109.799 25.9568 107.427 25.9568ZM106.705 18.2382C107.685 18.1523 108.166 17.7397 108.166 16.9661C108.063 16.1066 107.513 15.3846 106.774 15.3846C106.275 15.3846 105.742 16.3645 105.742 17.1896C105.742 17.7569 106 18.2382 106.705 18.2382ZM118.249 25.9568C117.304 25.9568 116.135 25.8708 115.327 25.613C113.006 24.9941 112.748 23.7392 112.748 22.8281C112.783 22.1233 112.8 21.7107 113.247 21.2638C113.608 20.9371 114.141 20.7824 114.725 20.7824C116.049 20.7824 117.596 21.556 117.596 22.5187C117.596 22.6218 117.579 22.725 117.527 22.8453C117.39 23.2407 117.2 23.3266 117.218 23.3266C117.218 23.3266 117.304 23.3094 117.476 23.3094C117.733 23.3094 118.73 22.3811 118.73 21.6419C118.73 21.3325 118.576 21.0747 118.146 20.9028C117.115 20.473 115.963 20.5418 115 20.1979C113.762 19.751 113.006 18.4617 113.006 17.4131C113.092 15.0924 114.777 13.253 118.49 13.253C122.358 13.253 122.891 15.2986 122.891 16.9489L122.873 17.4131C122.822 18.3414 122.1 18.7196 121.257 18.7196C119.882 18.7196 118.421 17.6537 118.421 17.3099C118.421 17.1724 118.576 17.0521 118.73 16.863C118.988 16.5879 119.074 16.3473 119.074 16.1926C119.074 15.9863 118.92 15.8659 118.679 15.8659C118.49 15.8659 118.283 15.9175 118.026 16.1238C117.647 16.4332 117.252 16.6395 117.252 17.0521C117.252 17.2412 117.338 17.4647 117.527 17.7569C117.837 18.2382 118.799 18.5477 120.003 19.029C120.828 19.3556 122.581 20.0088 122.908 22.0373C122.942 22.1749 122.942 22.3296 122.942 22.4671C122.942 24.4612 120.587 25.9568 118.249 25.9568ZM124.79 30.9076C124.205 30.9076 123.793 30.7529 123.793 30.3919L123.81 30.3232C124.033 28.6385 124.085 26.3178 124.085 24.0142C124.085 21.9686 124.05 19.9401 124.033 18.4101C124.016 17.2927 123.861 16.2097 123.26 15.2299C123.174 15.1096 123.156 14.9892 123.156 14.8689C123.156 14.0609 124.652 13.253 125.993 13.253C126.956 13.253 127.832 13.6655 128.039 14.7829C128.881 13.7859 129.74 13.253 130.566 13.253C133.127 13.253 134.623 16.5364 134.64 19.7854C134.64 22.9828 133.23 25.8536 130.497 25.974C129.569 25.974 128.657 25.527 128.039 24.6503L128.056 24.7706C128.073 25.9912 128.228 27.1429 128.726 27.6586C129.001 27.9509 129.104 28.2259 129.104 28.501C129.104 29.8246 126.32 30.9076 124.79 30.9076ZM128.967 22.7593C129.689 22.7593 130.015 21.5044 130.015 20.1292C130.015 18.4961 129.569 16.7083 128.881 16.7083C128.331 16.7083 127.935 17.2756 127.884 18.2382C127.849 18.8571 127.832 19.1665 127.832 19.4072C127.832 19.7682 127.867 19.9917 127.901 20.9371C127.918 22.0029 128.365 22.7593 128.967 22.7593ZM138.183 25.9396C136.567 25.9052 135.037 25.4239 135.037 24.5643C135.037 24.1002 135.622 23.722 135.828 22.0889V18.6164C135.828 17.6537 135.484 17.2068 135.209 16.9833C134.711 16.5707 134.522 16.1582 134.522 15.7628C134.522 14.4047 136.842 13.2874 138.097 13.253C139.094 13.253 139.954 14.0953 140.229 14.7829C141.226 14.2156 142.189 13.4077 142.997 13.4077C144.148 13.4077 145.145 15.2643 145.249 17.585C145.249 18.943 143.77 19.9057 142.618 19.9057C141.931 19.9057 141.346 19.5619 141.278 18.7539C141.174 17.7569 141.312 16.7942 140.676 16.7942C140.195 16.7942 140.005 17.4818 139.937 18.3242C139.937 21.0231 139.954 20.2839 139.954 22.3124C140.126 23.3954 140.143 23.1031 140.246 23.4641C140.401 23.8939 140.349 23.7048 140.573 24.1346L140.624 24.2033C140.642 24.3237 140.659 24.444 140.659 24.5471C140.659 25.527 139.473 25.9396 138.183 25.9396ZM151.343 23.4298C151.979 23.4298 152.271 21.917 152.271 20.2495C152.271 18.1867 151.824 15.8659 151.034 15.8659C150.277 15.8659 149.934 17.4131 149.934 19.1149C149.934 21.1606 150.432 23.4298 151.343 23.4298ZM151.274 25.9568C147.51 25.9224 145.602 22.9828 145.602 19.5963C145.602 16.416 147.458 13.253 151.171 13.253C154.85 13.3217 156.655 16.5192 156.655 19.665C156.655 22.8281 154.85 25.9568 151.274 25.9568ZM165.732 25.9568C165.028 25.9568 164.288 25.6301 163.824 24.8738C163.618 24.5471 163.119 23.5501 162.604 23.3438C162.174 23.1891 161.727 23.086 161.452 23.0516L161.521 24.4096C161.314 25.527 160.421 25.9568 159.458 25.9568C158.117 25.9568 156.621 25.1488 156.621 24.3237C156.621 24.2205 156.656 24.1002 156.725 23.9799C157.326 22.9828 157.481 21.917 157.498 20.7824L157.55 18.2726L157.395 14.5423C157.395 13.253 157.172 12.0324 156.707 11.5339C156.432 11.2589 156.312 10.9666 156.312 10.7088C156.312 9.38511 159.114 8.3021 160.644 8.3021C161.229 8.3021 161.624 8.45682 161.624 8.80063V8.86939C161.435 10.3306 161.366 12.2559 161.349 14.2328C162.243 13.4077 163.291 13.0295 164.288 13.0295C166.076 13.0295 167.641 14.2844 167.641 16.4848C167.641 16.9146 167.572 17.3959 167.451 17.8944C167.142 19.029 166.128 19.6307 165.2 19.6307C164.34 19.6307 163.446 19.0806 163.36 18.0663C163.274 17.1724 163.205 16.3129 162.724 16.141C162.638 16.141 161.847 16.3816 161.349 16.5192L161.366 18.2726C161.332 19.1665 161.314 19.4244 161.314 19.7338L161.349 20.5246C162.105 20.2667 162.999 20.112 163.876 20.112C164.271 20.112 164.667 20.1464 165.045 20.2151C166.283 20.473 167.641 21.9342 167.641 23.722C167.641 24.0314 167.606 24.3409 167.52 24.6675C167.297 25.4926 166.523 25.9396 165.732 25.9568ZM173.788 25.9568C168.665 25.8708 168.064 22.4327 168.047 19.5791C168.047 16.7083 169.525 13.253 173.823 13.253C175.714 13.2874 177.175 13.9234 177.914 15.2299C178.292 15.8831 178.447 16.4676 178.447 16.9833C178.447 19.3212 174.992 20.1464 173.187 20.1464C172.74 20.1464 172.413 20.0948 172.241 20.0088C172.396 20.9028 172.602 23.808 173.788 23.808C174.424 23.808 174.39 22.8109 174.493 21.8139C174.596 20.748 175.49 20.2151 176.418 20.2151C177.536 20.2151 178.43 20.8856 178.464 22.1577C178.464 24.2205 176.16 25.9568 173.788 25.9568ZM173.066 18.2382C174.046 18.1523 174.527 17.7397 174.527 16.9661C174.424 16.1066 173.874 15.3846 173.135 15.3846C172.636 15.3846 172.104 16.3645 172.104 17.1896C172.104 17.7569 172.361 18.2382 173.066 18.2382ZM181.88 25.9568C180.522 25.9568 179.182 24.9597 179.182 24.3237C179.182 24.2377 179.199 24.169 179.25 24.1002C179.474 23.7392 179.783 23.2063 179.938 21.9858V18.5992C179.921 17.6709 179.577 17.2412 179.319 17.0005C179.078 16.7598 178.975 16.4504 178.975 16.141C178.975 14.8689 180.591 13.253 182.121 13.253C183.703 13.253 183.961 13.4249 183.961 13.8546C183.961 14.0437 183.909 14.3188 183.909 14.6282C183.909 15.0924 183.926 15.5909 183.961 15.6596C184.665 14.2672 185.92 13.2358 187.003 13.2358C188.533 13.3217 189.84 14.6454 190.08 17.0865C190.149 17.7397 190.149 18.6508 190.149 19.5619V21.0919C190.149 21.6591 190.166 21.4013 190.166 21.9858C190.321 23.2063 190.648 23.7392 190.854 24.1002C190.888 24.169 190.906 24.2377 190.906 24.3237C190.906 24.9769 189.53 25.9396 188.121 25.9396C186.728 25.9396 185.319 25.0113 185.319 24.3409C185.319 24.2549 185.336 24.169 185.387 24.1002C185.594 23.7564 185.955 23.2579 186.023 22.1405C186.023 21.0747 185.542 17.86 185.319 17.2756C185.267 17.1724 185.198 17.1208 185.112 17.1208C184.769 17.1208 184.15 18.0147 184.047 18.3586V21.9858C184.201 23.2063 184.511 23.7392 184.734 24.1002C184.769 24.169 184.786 24.2377 184.786 24.3237C184.786 24.9941 183.325 25.9568 181.88 25.9568Z" fill="#04FF00"/>
<defs>
<clipPath id="clip0_119_932">
<rect width="30" height="38.1002" fill="white"/>
</clipPath>
</defs>
</svg>
