<svg width="306" height="40" viewBox="0 0 306 40" fill="none" xmlns="http://www.w3.org/2000/svg">
<g clip-path="url(#clip0_119_118)">
<path d="M74.9786 38.5322C76.7118 38.5141 78.2798 37.3896 80.4564 34.7107C82.6602 31.9978 85.8663 27.2214 87.9389 19.7435C88.7693 16.7433 88.6946 12.9353 86.5723 9.10016C84.2123 4.83739 79.3138 1.49777 73.5848 1.56565C68.2722 1.62901 63.2809 4.61566 60.9617 9.10016C59.0046 12.89 59.5589 16.5623 59.9435 19.0398C60.8192 24.6602 63.6655 27.9839 68.9895 34.2016C71.863 37.5571 73.3246 38.5503 74.9786 38.5345V38.5322Z" stroke="black" stroke-width="1.13131" stroke-miterlimit="10"/>
<path d="M71.3797 28.2398C73.1188 27.2357 72.8926 23.5881 70.8745 20.0926C68.8564 16.5972 65.8106 14.5775 64.0715 15.5815C62.3324 16.5856 62.5586 20.2332 64.5767 23.7287C66.5948 27.2241 69.6407 29.2438 71.3797 28.2398Z" fill="black"/>
<path d="M83.6153 23.4746C85.6335 19.9791 85.8597 16.3315 84.1206 15.3275C82.3815 14.3234 79.3357 16.3431 77.3176 19.8386C75.2995 23.334 75.0733 26.9816 76.8123 27.9857C78.5514 28.9898 81.5972 26.9701 83.6153 23.4746Z" fill="black"/>
</g>
<path d="M103.997 26.9568C98.5643 26.9568 97.4126 22.0747 97.4126 18.1208C97.4126 14.1842 99.1488 9.3021 103.997 9.3021C108.861 9.3021 111.388 13.4106 111.388 18.4818C111.388 23.5359 109.446 26.9568 103.997 26.9568ZM104.392 24.2407C105.75 24.2407 106.214 22.0059 106.214 19.0663C106.163 15.1125 105.698 12.0182 104.031 12.0182C102.69 12.0182 102.209 14.253 102.209 17.1754C102.277 21.1464 102.742 24.2407 104.392 24.2407ZM115.024 26.9568C113.666 26.9568 112.325 25.9597 112.325 25.3237C112.325 25.2377 112.342 25.169 112.394 25.1002C112.617 24.7392 112.926 24.2063 113.081 22.9858V19.5992C113.064 18.6709 112.72 18.2412 112.462 18.0005C112.222 17.7598 112.119 17.4504 112.119 17.141C112.119 15.8689 113.734 14.253 115.264 14.253C116.846 14.253 117.104 14.4249 117.104 14.8546C117.104 15.0437 117.052 15.3188 117.052 15.6282C117.052 16.0924 117.069 16.5909 117.104 16.6596C117.809 15.2672 119.063 14.2358 120.146 14.2358C121.676 14.3217 122.983 15.6454 123.224 18.0865C123.292 18.7397 123.292 19.6508 123.292 20.5619V22.0919C123.292 22.6591 123.31 22.4013 123.31 22.9858C123.464 24.2063 123.791 24.7392 123.997 25.1002C124.032 25.169 124.049 25.2377 124.049 25.3237C124.049 25.9769 122.674 26.9396 121.264 26.9396C119.871 26.9396 118.462 26.0113 118.462 25.3409C118.462 25.2549 118.479 25.169 118.531 25.1002C118.737 24.7564 119.098 24.2579 119.167 23.1405C119.167 22.0747 118.685 18.86 118.462 18.2756C118.41 18.1724 118.341 18.1208 118.256 18.1208C117.912 18.1208 117.293 19.0147 117.19 19.3586V22.9858C117.344 24.2063 117.654 24.7392 117.877 25.1002C117.912 25.169 117.929 25.2377 117.929 25.3237C117.929 25.9941 116.468 26.9568 115.024 26.9568ZM127.739 26.9568C126.209 26.8708 124.885 25.5471 124.662 23.1233C124.593 22.3669 124.576 21.3011 124.576 20.304C124.576 18.8772 124.576 19.5992 124.576 18.2068C124.421 16.9863 124.112 16.4534 123.888 16.0924C123.837 16.0236 123.819 15.9548 123.819 15.8689C123.819 15.2156 125.195 14.253 126.622 14.253C128.805 14.253 128.977 15.2328 128.977 16.0752C128.977 16.8487 128.822 17.6395 128.822 18.4475C128.839 19.9602 128.856 21.473 129.424 22.917C129.458 23.0201 129.527 23.0717 129.613 23.0717C129.957 23.0717 130.575 22.1778 130.713 21.834V18.2068C130.558 16.9863 130.249 16.4534 130.025 16.0924C129.974 16.0236 129.957 15.9376 129.957 15.8689C129.957 15.1985 131.383 14.253 132.827 14.253C134.374 14.2702 135.096 14.7515 135.114 15.8345C135.114 17.5364 134.804 19.3414 134.804 21.0776V21.6105C134.821 22.5216 135.182 22.9514 135.423 23.192C135.647 23.4327 135.767 23.7421 135.767 24.0516C135.767 25.3237 134.151 26.9396 132.638 26.9396C131.022 26.9396 130.782 26.7677 130.782 26.3379C130.782 26.1488 130.833 25.9081 130.833 25.6159C130.816 25.1346 130.833 24.6017 130.799 24.5329C130.06 25.9253 128.839 26.9568 127.739 26.9568ZM138.779 13.8232C137.507 13.8232 136.475 12.9637 136.475 11.9151C136.475 10.8664 137.507 9.80063 138.779 9.80063C140.051 9.80063 141.1 10.8664 141.1 11.9151C141.1 12.9637 140.051 13.8232 138.779 13.8232ZM139.002 26.9568C137.576 26.9568 136.166 26.4754 136.166 25.53C136.166 25.4096 136.183 25.2893 136.235 25.169C136.699 23.7421 136.922 23.6906 136.922 22.0403C136.905 21.0088 136.905 21.4902 136.905 20.4072C136.871 19.1695 136.716 18.0177 136.218 17.502C135.943 17.2269 135.839 16.9519 135.839 16.694C135.839 15.3532 138.796 14.253 140.412 14.253C141.014 14.253 141.444 14.4077 141.444 14.7687V14.8375C141.272 16.058 141.186 17.3129 141.168 18.5506C141.168 19.7024 141.237 20.8369 141.237 21.9887V22.2809C141.237 23.7421 141.461 23.8281 141.908 25.169C141.942 25.2893 141.959 25.3924 141.959 25.4956C141.959 26.4582 140.395 26.9396 139.002 26.9568ZM145.969 26.9568C144.594 26.9568 143.236 26.4754 143.236 25.5128C143.236 25.4096 143.271 25.2893 143.305 25.1518C143.442 24.7392 143.838 24.2407 143.993 23.0373V20.751C143.993 20.3212 144.044 19.3757 144.044 18.4818C144.044 17.6223 143.993 16.8316 143.786 16.6253C143.769 16.5909 143.718 16.5565 143.649 16.5049C143.546 16.5049 143.202 16.4534 143.099 16.4534C142.325 16.3846 142.119 16.1439 142.084 15.1985C142.084 14.6484 142.274 14.2874 142.6 14.2358C144.216 13.9607 143.838 11.8635 146.606 11.8635C147.792 11.8635 148.101 12.087 148.101 14.253L148.857 14.2358C149.373 14.2358 149.717 14.3045 149.717 14.7515C149.717 16.3846 149.425 16.4534 148.393 16.4534H148.084V23.0373C148.239 24.2407 148.651 24.7392 148.772 25.1518C148.806 25.2721 148.823 25.3752 148.823 25.4784C148.823 26.4582 147.379 26.9568 145.969 26.9568Z" fill="black"/>
<path d="M157.747 34.0908C157.008 34.0908 156.269 33.6095 156.269 32.5781C156.269 32.4749 156.286 32.3718 156.286 32.2515C156.389 31.4951 157.524 31.1513 157.524 30.1542C157.524 30.0683 157.507 29.9823 157.489 29.8963C156.028 32.0452 153.656 33.5407 152.126 33.5751C150.458 33.5751 149.152 31.7701 149.152 30.0511C149.152 29.5525 149.272 29.054 149.513 28.6071C150.149 27.4553 151.576 26.7505 152.985 26.1832L153.484 25.9253C152.659 25.8566 152.229 25.6503 151.61 25.3065C149.977 24.361 149.152 22.5388 149.152 20.6994C149.152 18.0005 150.94 15.2844 154.498 15.2844C154.533 14.3389 154.928 13.3419 155.392 12.8262C156.063 12.1042 156.991 11.7947 157.764 11.7947C159.174 11.7947 159.948 12.8777 159.948 13.7544C159.948 14.5452 159.346 15.2844 157.85 15.3532C157.455 15.3704 157.111 15.5079 156.785 15.6626C158.538 16.2815 159.999 18.5162 159.999 20.4244C159.999 25.2377 157.077 27.0255 155.255 27.8163C154.722 28.0742 153.484 28.1945 153.484 28.9337C153.518 29.3634 153.69 29.5525 154 29.5525C154.945 29.5525 156.888 27.7303 157.507 27.2318C157.747 27.0771 157.988 26.9912 158.194 26.9912C159.277 26.9912 159.999 28.8305 159.999 30.6355C159.948 32.4749 159.26 34.0908 157.747 34.0908ZM154.739 23.364C155.409 23.364 155.719 22.1606 155.719 20.8541C155.719 19.3242 155.289 17.6739 154.515 17.6739C153.759 17.6739 153.398 18.9116 153.398 20.2353C153.398 21.748 153.862 23.364 154.739 23.364ZM166.427 26.9568C161.304 26.8708 160.702 23.4327 160.685 20.5791C160.685 17.7083 162.163 14.253 166.461 14.253C168.352 14.2874 169.813 14.9234 170.552 16.2299C170.931 16.8831 171.085 17.4676 171.085 17.9833C171.085 20.3212 167.63 21.1464 165.825 21.1464C165.378 21.1464 165.051 21.0948 164.88 21.0088C165.034 21.9028 165.241 24.808 166.427 24.808C167.063 24.808 167.028 23.8109 167.132 22.8139C167.235 21.748 168.129 21.2151 169.057 21.2151C170.174 21.2151 171.068 21.8856 171.103 23.1577C171.103 25.2205 168.799 26.9568 166.427 26.9568ZM165.705 19.2382C166.685 19.1523 167.166 18.7397 167.166 17.9661C167.063 17.1066 166.513 16.3846 165.774 16.3846C165.275 16.3846 164.742 17.3645 164.742 18.1896C164.742 18.7569 165 19.2382 165.705 19.2382ZM177.249 26.9568C176.304 26.9568 175.135 26.8708 174.327 26.613C172.006 25.9941 171.748 24.7392 171.748 23.8281C171.783 23.1233 171.8 22.7107 172.247 22.2638C172.608 21.9371 173.141 21.7824 173.725 21.7824C175.049 21.7824 176.596 22.556 176.596 23.5187C176.596 23.6218 176.579 23.725 176.527 23.8453C176.39 24.2407 176.2 24.3266 176.218 24.3266C176.218 24.3266 176.304 24.3094 176.476 24.3094C176.733 24.3094 177.73 23.3811 177.73 22.6419C177.73 22.3325 177.576 22.0747 177.146 21.9028C176.115 21.473 174.963 21.5418 174 21.1979C172.762 20.751 172.006 19.4617 172.006 18.4131C172.092 16.0924 173.777 14.253 177.49 14.253C181.358 14.253 181.891 16.2986 181.891 17.9489L181.873 18.4131C181.822 19.3414 181.1 19.7196 180.257 19.7196C178.882 19.7196 177.421 18.6537 177.421 18.3099C177.421 18.1724 177.576 18.0521 177.73 17.863C177.988 17.5879 178.074 17.3473 178.074 17.1926C178.074 16.9863 177.92 16.8659 177.679 16.8659C177.49 16.8659 177.283 16.9175 177.026 17.1238C176.647 17.4332 176.252 17.6395 176.252 18.0521C176.252 18.2412 176.338 18.4647 176.527 18.7569C176.837 19.2382 177.799 19.5477 179.003 20.029C179.828 20.3556 181.581 21.0088 181.908 23.0373C181.942 23.1749 181.942 23.3296 181.942 23.4671C181.942 25.4612 179.587 26.9568 177.249 26.9568ZM183.79 31.9076C183.205 31.9076 182.793 31.7529 182.793 31.3919L182.81 31.3232C183.033 29.6385 183.085 27.3178 183.085 25.0142C183.085 22.9686 183.05 20.9401 183.033 19.4101C183.016 18.2927 182.861 17.2097 182.26 16.2299C182.174 16.1096 182.156 15.9892 182.156 15.8689C182.156 15.0609 183.652 14.253 184.993 14.253C185.956 14.253 186.832 14.6655 187.039 15.7829C187.881 14.7859 188.74 14.253 189.566 14.253C192.127 14.253 193.623 17.5364 193.64 20.7854C193.64 23.9828 192.23 26.8536 189.497 26.974C188.569 26.974 187.657 26.527 187.039 25.6503L187.056 25.7706C187.073 26.9912 187.228 28.1429 187.726 28.6586C188.001 28.9509 188.104 29.2259 188.104 29.501C188.104 30.8246 185.32 31.9076 183.79 31.9076ZM187.967 23.7593C188.689 23.7593 189.015 22.5044 189.015 21.1292C189.015 19.4961 188.569 17.7083 187.881 17.7083C187.331 17.7083 186.935 18.2756 186.884 19.2382C186.849 19.8571 186.832 20.1665 186.832 20.4072C186.832 20.7682 186.867 20.9917 186.901 21.9371C186.918 23.0029 187.365 23.7593 187.967 23.7593ZM197.183 26.9396C195.567 26.9052 194.037 26.4239 194.037 25.5643C194.037 25.1002 194.622 24.722 194.828 23.0889V19.6164C194.828 18.6537 194.484 18.2068 194.209 17.9833C193.711 17.5707 193.522 17.1582 193.522 16.7628C193.522 15.4047 195.842 14.2874 197.097 14.253C198.094 14.253 198.954 15.0953 199.229 15.7829C200.226 15.2156 201.189 14.4077 201.997 14.4077C203.148 14.4077 204.145 16.2643 204.249 18.585C204.249 19.943 202.77 20.9057 201.618 20.9057C200.931 20.9057 200.346 20.5619 200.278 19.7539C200.174 18.7569 200.312 17.7942 199.676 17.7942C199.195 17.7942 199.005 18.4818 198.937 19.3242C198.937 22.0231 198.954 21.2839 198.954 23.3124C199.126 24.3954 199.143 24.1031 199.246 24.4641C199.401 24.8939 199.349 24.7048 199.573 25.1346L199.624 25.2033C199.642 25.3237 199.659 25.444 199.659 25.5471C199.659 26.527 198.473 26.9396 197.183 26.9396ZM210.343 24.4298C210.979 24.4298 211.271 22.917 211.271 21.2495C211.271 19.1867 210.824 16.8659 210.034 16.8659C209.277 16.8659 208.934 18.4131 208.934 20.1149C208.934 22.1606 209.432 24.4298 210.343 24.4298ZM210.274 26.9568C206.51 26.9224 204.602 23.9828 204.602 20.5963C204.602 17.416 206.458 14.253 210.171 14.253C213.85 14.3217 215.655 17.5192 215.655 20.665C215.655 23.8281 213.85 26.9568 210.274 26.9568ZM224.732 26.9568C224.028 26.9568 223.288 26.6301 222.824 25.8738C222.618 25.5471 222.119 24.5501 221.604 24.3438C221.174 24.1891 220.727 24.086 220.452 24.0516L220.521 25.4096C220.314 26.527 219.421 26.9568 218.458 26.9568C217.117 26.9568 215.621 26.1488 215.621 25.3237C215.621 25.2205 215.656 25.1002 215.725 24.9799C216.326 23.9828 216.481 22.917 216.498 21.7824L216.55 19.2726L216.395 15.5423C216.395 14.253 216.172 13.0324 215.707 12.5339C215.432 12.2589 215.312 11.9666 215.312 11.7088C215.312 10.3851 218.114 9.3021 219.644 9.3021C220.229 9.3021 220.624 9.45682 220.624 9.80063V9.86939C220.435 11.3306 220.366 13.2559 220.349 15.2328C221.243 14.4077 222.291 14.0295 223.288 14.0295C225.076 14.0295 226.641 15.2844 226.641 17.4848C226.641 17.9146 226.572 18.3959 226.451 18.8944C226.142 20.029 225.128 20.6307 224.2 20.6307C223.34 20.6307 222.446 20.0806 222.36 19.0663C222.274 18.1724 222.205 17.3129 221.724 17.141C221.638 17.141 220.847 17.3816 220.349 17.5192L220.366 19.2726C220.332 20.1665 220.314 20.4244 220.314 20.7338L220.349 21.5246C221.105 21.2667 221.999 21.112 222.876 21.112C223.271 21.112 223.667 21.1464 224.045 21.2151C225.283 21.473 226.641 22.9342 226.641 24.722C226.641 25.0314 226.606 25.3409 226.52 25.6675C226.297 26.4926 225.523 26.9396 224.732 26.9568ZM232.788 26.9568C227.665 26.8708 227.064 23.4327 227.047 20.5791C227.047 17.7083 228.525 14.253 232.823 14.253C234.714 14.2874 236.175 14.9234 236.914 16.2299C237.292 16.8831 237.447 17.4676 237.447 17.9833C237.447 20.3212 233.992 21.1464 232.187 21.1464C231.74 21.1464 231.413 21.0948 231.241 21.0088C231.396 21.9028 231.602 24.808 232.788 24.808C233.424 24.808 233.39 23.8109 233.493 22.8139C233.596 21.748 234.49 21.2151 235.418 21.2151C236.536 21.2151 237.43 21.8856 237.464 23.1577C237.464 25.2205 235.16 26.9568 232.788 26.9568ZM232.066 19.2382C233.046 19.1523 233.527 18.7397 233.527 17.9661C233.424 17.1066 232.874 16.3846 232.135 16.3846C231.636 16.3846 231.104 17.3645 231.104 18.1896C231.104 18.7569 231.361 19.2382 232.066 19.2382ZM240.88 26.9568C239.522 26.9568 238.182 25.9597 238.182 25.3237C238.182 25.2377 238.199 25.169 238.25 25.1002C238.474 24.7392 238.783 24.2063 238.938 22.9858V19.5992C238.921 18.6709 238.577 18.2412 238.319 18.0005C238.078 17.7598 237.975 17.4504 237.975 17.141C237.975 15.8689 239.591 14.253 241.121 14.253C242.703 14.253 242.961 14.4249 242.961 14.8546C242.961 15.0437 242.909 15.3188 242.909 15.6282C242.909 16.0924 242.926 16.5909 242.961 16.6596C243.665 15.2672 244.92 14.2358 246.003 14.2358C247.533 14.3217 248.84 15.6454 249.08 18.0865C249.149 18.7397 249.149 19.6508 249.149 20.5619V22.0919C249.149 22.6591 249.166 22.4013 249.166 22.9858C249.321 24.2063 249.648 24.7392 249.854 25.1002C249.888 25.169 249.906 25.2377 249.906 25.3237C249.906 25.9769 248.53 26.9396 247.121 26.9396C245.728 26.9396 244.319 26.0113 244.319 25.3409C244.319 25.2549 244.336 25.169 244.387 25.1002C244.594 24.7564 244.955 24.2579 245.023 23.1405C245.023 22.0747 244.542 18.86 244.319 18.2756C244.267 18.1724 244.198 18.1208 244.112 18.1208C243.769 18.1208 243.15 19.0147 243.047 19.3586V22.9858C243.201 24.2063 243.511 24.7392 243.734 25.1002C243.769 25.169 243.786 25.2377 243.786 25.3237C243.786 25.9941 242.325 26.9568 240.88 26.9568Z" fill="#04FF00"/>
<defs>
<clipPath id="clip0_119_118">
<rect width="30" height="38.1002" fill="white" transform="translate(59 1)"/>
</clipPath>
</defs>
</svg>
